<svg xmlns="http://www.w3.org/2000/svg" viewBox="0 0 14.1 16.9" fill="#6d5ec2"><path d="M0 10.5V4.7c0-.4 0-.4.4-.4h4c.4 0 .4 0 .4-.4V.4c0-.4 0-.4.4-.4h2.5c.4 0 .4 0 .4.4v3.4c0 .4 0 .4.4.4h1.1c.2 0 .3.1.3.3v1.7c0 .2-.1.3-.3.3H8.4c-.2 0-.3.1-.3.3v6.8c0 .6.3.9.9.9h.7c.2 0 .3.1.3.3v1.8c0 .2-.1.3-.2.3-1.1.1-2.2.2-3.2 0-1.1-.2-1.5-.9-1.6-2.1-.1-1.1 0-2.2 0-3.3V7.1c0-.5 0-.5-.5-.5h-.8c-.2 0-.3.1-.3.3v9.5c0 .7 0 .6-.6.6H.5c-.3 0-.4-.1-.4-.4L0 10.5zm10.8-8.1V.3c0-.2.1-.3.3-.3h2.7c.2 0 .3.1.3.3L14 5.2 13.8 9l-.1 2.8c0 .3-.1.4-.4.4h-1.6c-.4 0-.4 0-.4-.4L11.1 8l-.3-5.6zm1.7 14.4h-1.3c-.2 0-.3-.1-.3-.3v-2.6c0-.2.1-.3.3-.3h2.7c.2 0 .3.1.3.3v2.6c0 .2-.1.3-.3.3h-1.4zM1.6 2.8H.3c-.2 0-.3-.1-.3-.2V.3C0 .1.1 0 .3 0H3c.2 0 .3.1.3.3v2.3c0 .2-.1.2-.3.2H1.6z"/></svg>