<svg xmlns="http://www.w3.org/2000/svg" viewBox="0 0 18.3 17.5" fill="#6d5ec2"><path d="M0 1.7c0-.1.1-.3.1-.4.2-.4.5-.8.9-1 .8-.4 1.7-.4 2.5.1.7.4 1 1.1.9 1.9 0 .8-.5 1.4-1.3 1.7-.7.2-1.3.2-1.9-.1A1.63 1.63 0 0 1 .1 2.6c-.1 0-.1-.1-.1-.1v-.8zm10.3 5.6c.3-.3.5-.6.8-.9a3.98 3.98 0 0 1 2.1-.9c.8-.1 1.7 0 2.4.3 1 .4 1.7 1.2 2.2 2.2.3.8.5 1.6.5 2.4v6.9c0 .2-.1.2-.2.2h-3.5c-.2 0-.2-.1-.2-.2v-6c0-.5 0-.9-.2-1.4-.4-1.4-1.7-1.6-2.6-1.2-.8.3-1.2 1-1.3 1.8v6.7c0 .3 0 .3-.3.3H6.6c-.2 0-.2 0-.2-.2V5.9c0-.2.1-.2.2-.2h3.5c.2 0 .2.1.2.2v1.4zm-6.1 4.3v5.6c0 .3 0 .3-.3.3H.5c-.2 0-.3 0-.3-.2V6c0-.2 0-.3.2-.3h3.5c.2 0 .2 0 .2.2l.1 5.7z"/></svg>