<svg xmlns="http://www.w3.org/2000/svg" viewBox="0 0 16 20.3"><path d="M7.8 0H9c.2 0 .3.1.5.1 2.8.4 5 1.8 5.9 4.5 1 2.9.4 5.7-1.5 8.1-1.1 1.4-2.6 2.1-4.4 2.2-1 0-1.9-.3-2.8-1-.1.3-.1.5-.2.8-.4 1.5-.7 3-1.5 4.4-.3.5-.6 1-1.2 1.2h-.3c-.2-.3-.5-.6-.5-.9-.2-1.2-.1-2.4.2-3.6l1.4-6v-.6c-.1-.8-.3-1.5-.1-2.3.2-1 .7-1.8 1.7-2.3 1.1-.5 2.3.1 2.5 1.3.1.4.1.9 0 1.3l-.9 3.3c-.3 1.2.6 2.1 1.8 1.9 1-.2 1.6-.9 2-1.7.8-1.4 1-2.9.9-4.5-.1-1.2-.7-2.2-1.7-2.9-.8-.5-1.6-.7-2.5-.7C5.7 2.5 3.7 4 3 6.4c-.3 1.2-.3 2.4.6 3.4.1.2.2.5.2.8s-.1.6-.2 1c-.2.4-.6.6-1.1.4-.4-.2-.8-.4-1.1-.7C.1 9.9-.2 8.1.2 6.3.8 3.2 2.8 1.3 5.8.4c.6-.2 1.3-.3 2-.4z" fill="#6d5ec2"/></svg>