<svg xmlns="http://www.w3.org/2000/svg" viewBox="0 0 14 23.9"><path d="M13.8 19.9l.2 2.5c0 .2 0 .3-.2.4-.6.4-1.3.6-1.9.7-1.2.3-2.4.4-3.7.4-1.3-.1-2.5-.2-3.6-.8-1.2-.6-1.7-1.6-2-2.8-.2-.9-.2-1.8-.2-2.6V9.4c-.1-.4-.1-.5-.4-.5H.2c-.1.1-.2 0-.2-.2v-2c0-.1 0-.2.1-.2 1.4-.3 2.4-1.1 3.3-2.2.9-1.2 1.5-2.5 1.7-4 0-.2.1-.3.4-.3h1.9c.2 0 .2.1.2.2v5.6c0 .2.1.3.3.3h4.8c.2 0 .3.1.3.3l-.1 2.3c0 .2-.1.2-.2.2H7.9c-.2 0-.3.1-.3.3v8.2c0 .4 0 .9.1 1.3.2.8.7 1.2 1.3 1.5 1.6.7 3.1.7 4.6-.3h.2z" fill="#6d5ec2"/></svg>