<svg xmlns="http://www.w3.org/2000/svg" viewBox="0 0 22.8 18.4"><path d="M21.1 2.6c-.5.1-.9.1-.9.1v-.1c.5-.4 1.6-1.5 1.8-2 .1-.2 0-.3 0-.3l-1.5.6-1.2.6C18.4.6 17.1 0 15.7 0 13.1 0 11 1.8 11 4.1c0 .4.1 1.2.2 1.5 0 .1 0-.1 0 0-1.7 0-3.8-.7-5.7-1.7C1.8 2 1.5.7 1.5.7 1 1.3.7 3.4 1.2 5c.4 1 1.7 2 1.7 2h0s-.6 0-1.2-.2-.8-.4-.8-.4c-.4.9.4 2.5 1.6 3.6.7.7 2.1 1.1 2.1 1.1l-2.1.1c-.1 2 4.3 3.3 4.3 3.3h0C5.5 15.4 4 16 2.4 16c-.8 0-1.6-.1-2.4-.4 2.1 1.7 4.8 3 7.8 2.8 7.9-.4 12.3-7.2 12.5-13.8h0s.4-.2 1.2-1c.8-.7 1.3-1.6 1.3-1.6s-1.2.5-1.7.6z" fill="#6c61ab"/></svg>