<svg xmlns="http://www.w3.org/2000/svg" viewBox="0 0 419.1 103" class="A" fill="#414142"><path d="M113.2 36.7h20.6c1.4 0 2.6.5 3.5 1.5 1 1 1.5 2.1 1.5 3.5v6.9c0 1.4-.5 2.5-1.5 3.5s-2.1 1.5-3.5 1.5h-15.9v8.8h-4.7V36.7zm20.9 11.8v-6.9c0-.2-.1-.2-.2-.2h-15.7c-.2 0-.2.1-.2.2v6.9c0 .2.1.2.2.2h15.7c.1.1.2 0 .2-.2zm10.7-13.6h4.7v22.5c0 .2.1.2.2.2h4.2v4.7h-4.2c-1.4 0-2.5-.5-3.5-1.4-1-1-1.4-2.1-1.4-3.5V34.9zm31.8 6.7c1.4 0 2.5.5 3.5 1.4 1 1 1.4 2.1 1.4 3.5v15.7h-16.1c-1.4 0-2.5-.5-3.5-1.4-1-1-1.4-2.1-1.4-3.5v-7.8h16.3v-3.1c0-.2-.1-.2-.2-.2h-16v-4.7h16zm.3 16v-3.3h-11.6v3.1c0 .2.1.2.2.2h11.4zm24.7-11.3h-8v11.1c0 .2.1.2.2.2h7.8v4.7h-7.8c-1.4 0-2.5-.5-3.5-1.4-.9-1-1.4-2.1-1.4-3.5V34.9h4.7v6.8h8v4.6zm11.3-6.7c-.2 0-.2.1-.2.2v1.9h8v4.7h-8v16H208V39.8c0-1.4.5-2.5 1.4-3.5s2.1-1.4 3.5-1.4h7.8v4.7h-7.8zm19 2H243c1.4 0 2.5.5 3.5 1.4 1 1 1.4 2.1 1.4 3.5v10.8c0 1.4-.5 2.5-1.4 3.5-1 1-2.1 1.4-3.5 1.4h-11.1c-1.4 0-2.5-.5-3.5-1.4-1-1-1.4-2.1-1.4-3.5V46.6c0-1.4.5-2.5 1.4-3.5 1-1 2.2-1.5 3.5-1.5zm11.2 4.7H232c-.2 0-.2.1-.2.2v10.8c0 .2.1.2.2.2h11.1c.2 0 .2-.1.2-.2V46.6c0-.2-.1-.3-.2-.3zm16.5-4.7h11.5v4.7h-11.5c-.2 0-.2.1-.2.2v15.7h-4.7V46.6c0-1.4.5-2.5 1.4-3.5 1-1 2.2-1.5 3.5-1.5zm43.1 0c1.4 0 2.5.5 3.5 1.4 1 1 1.4 2.1 1.4 3.5v15.7H303V46.6c0-.2-.1-.2-.3-.2h-7.8c-.1 0-.2.1-.2.2v15.7H290V46.6c0-.2-.1-.2-.2-.2H282c-.2 0-.2.1-.2.2v15.7h-4.7V41.6h25.6zm38.4-.2h-20.6c-.2 0-.2.1-.2.2v15.7c0 .2.1.2.2.2h20.6v4.7h-20.6c-1.4 0-2.5-.5-3.5-1.4-1-1-1.4-2.1-1.4-3.5V41.6c0-1.4.5-2.5 1.4-3.5 1-1 2.1-1.4 3.5-1.4h20.6v4.7zm12 .2h11.1c1.4 0 2.5.5 3.5 1.4 1 1 1.4 2.1 1.4 3.5v10.8c0 1.4-.5 2.5-1.4 3.5-1 1-2.1 1.4-3.5 1.4h-11.1c-1.4 0-2.5-.5-3.5-1.4-1-1-1.4-2.1-1.4-3.5V46.6c0-1.4.5-2.5 1.4-3.5 1-1 2.1-1.5 3.5-1.5zm11.1 4.7h-11.1c-.2 0-.3.1-.3.2v10.8c0 .2.1.2.3.2h11.1c.2 0 .2-.1.2-.2V46.6c.1-.2 0-.3-.2-.3zm16.6-4.7h11.5v4.7h-11.5c-.2 0-.2.1-.2.2v15.7h-4.7V46.6c0-1.4.5-2.5 1.4-3.5 1-1 2.1-1.5 3.5-1.5zm33.4 0c1.4 0 2.5.5 3.5 1.4 1 1 1.4 2.1 1.4 3.5v7.8h-16.3v3.1c0 .2.1.2.2.2h16v4.7h-16c-1.4 0-2.5-.5-3.5-1.4-1-1-1.4-2.1-1.4-3.5V46.6c0-1.4.5-2.5 1.4-3.5 1-1 2.1-1.4 3.5-1.4h11.2zm-11.4 8h11.6v-3.1c0-.2-.1-.2-.2-.2h-11.1c-.2 0-.2.1-.2.2v3.1zM57.8 4.1c1-.4 1.5-1.6 1.1-2.6-.3-.6-.9-1-1.3-1.5h-1.4c-.2.2-.5.4-.7.6-.8.8-1 1.9-.4 2.8.6.8 1.7 1.1 2.7.7zM89.6 71c0-1.1-1.1-2.1-2.2-2.1s-2.2 1.1-2.2 2.2 1.1 2.1 2.2 2.1a2.22 2.22 0 0 0 2.2-2.2zM48.4 27a2.22 2.22 0 0 0 2.2 2.2c1.2 0 2.1-1 2.1-2.3 0-1.1-1.1-2.1-2.2-2.1-1.2 0-2.1 1-2.1 2.2zM13.5 72.6c-1.1 0-2.1 1-2.1 2.2s1.1 2.2 2.2 2.2 2.1-1 2.1-2.2c0-1.3-1-2.3-2.2-2.2zm65.3-2.1c-1.1 0-2.1.9-2.2 2.1-.1 1.1.9 2.2 2.1 2.3 1.1 0 2.1-.9 2.2-2.1 0-1.2-1-2.3-2.1-2.3zM9.3 32.1c0 1.1 1.1 2.1 2.2 2.1s2.1-1 2.1-2.1a2.22 2.22 0 0 0-2.2-2.2c-1.1-.1-2.2 1-2.1 2.2zm55.1 41.1c1.2 0 2.2-1 2.1-2.2 0-1.1-1-2.1-2.1-2.1s-2.2 1.1-2.2 2.2c.1 1.1 1.1 2.1 2.2 2.1zM75.5 92a2.22 2.22 0 0 0-2.2 2.2c0 1.1 1.1 2.1 2.2 2.1 1.2 0 2.2-1 2.1-2.2 0-1.2-1-2.1-2.1-2.1zm9.9-61.5c1.1-.1 2.1-1.1 2.1-2.2s-1.1-2.1-2.2-2.1c-1.2 0-2.2 1.1-2.2 2.2.1 1.2 1.1 2.2 2.3 2.1zm11.5 34.8c-1.1-.1-2.2.8-2.3 2s.8 2.3 2 2.3a2.13 2.13 0 0 0 2.3-1.9c.1-1.3-.8-2.3-2-2.4zM46 73.2c1.1 0 2.2-1 2.1-2.1 0-1.2-.9-2.1-2.1-2.2-1.2 0-2.2.9-2.2 2.2.1 1.1 1 2 2.2 2.1zM10.4 22.6c1.1 0 2.1-1 2.1-2.2s-.9-2.1-2.1-2.2c-1.2 0-2.1.9-2.2 2.1.1 1.2 1 2.3 2.2 2.3zm59.4 56.7c-1.1 0-2.1 1-2.2 2.1 0 1.2 1 2.3 2.2 2.2 1.1 0 2.1-1 2.1-2.2-.1-1.2-1-2.1-2.1-2.1zm-31.9-5c0 1.1 1 2.1 2.1 2.1s2.2-1.1 2.2-2.2-1-2.1-2.2-2.1-2.1 1-2.1 2.2zm7.9 11c-1.2 0-2.2 1-2.1 2.3 0 1.2 1 2.1 2.2 2.1 1.1 0 2.1-1 2.1-2.2-.1-1.2-1.1-2.2-2.2-2.2zm7.3-67.5c1.2 0 2.1-.9 2.1-2.1s-.9-2.2-2.1-2.2c-1.1 0-2 1-2.1 2.1s.9 2.2 2.1 2.2zm-14.7-1.3c0 1.1 1 2.2 2.2 2.2 1.1 0 2.1-1 2.1-2.1 0-1.2-.9-2.2-2.1-2.2-1.1-.1-2.1.9-2.2 2.1zm34.7 1.1c.1 1.1 1.1 2.1 2.2 2.1 1.2 0 2.1-1.1 2.1-2.3-.1-1.1-1.1-2.1-2.2-2.1s-2.2 1.1-2.1 2.3zm-43.9 6.2c1.2 0 2.2-1 2.1-2.2 0-1.1-1.1-2.1-2.2-2.1s-2.1 1-2.1 2.1a2.22 2.22 0 0 0 2.2 2.2zm46.2.4c-1.2 0-2.1.8-2.2 2 0 1.2.8 2.2 2 2.2 1.3.1 2.2-.8 2.2-2.1.1-1.1-.8-2-2-2.1zM58.7 31c1.2.1 2.2-.9 2.3-2.1 0-1.2-.9-2.2-2.1-2.2-1.1 0-2.1 1-2.1 2.1-.1 1.1.8 2.1 1.9 2.2zm-38.4 1.6c1.1-.1 2.1-1.1 2.1-2.2s-1.1-2.1-2.2-2.1-2.2 1.1-2.2 2.2 1.1 2.1 2.3 2.1zm43.9-5.9c0 1.2.9 2.2 2.2 2.2 1.2 0 2.2-1.1 2.2-2.2s-1.1-2.1-2.2-2.1c-1.2-.1-2.1.9-2.2 2.1zM4.3 35.6c0-1.2-1.1-2.1-2.3-2.1s-2.1 1-2.1 2.2 1.1 2.2 2.3 2.1c1.2 0 2.2-1.1 2.1-2.2zm82 25.7c0-1-.8-1.9-1.7-2.1-.2.3-.3.6-.5.9-.2.4-.4.7-.7 1.1-.3.5-.7.9-1 1.4.4.6 1.1 1 1.8.9 1.1 0 2.2-1.1 2.1-2.2zm0-10.5c.7-.3 1.2-1.1 1.2-1.9 0-1.1-.7-2-1.8-2.2.4 1.4.6 2.7.6 4.1zm-70.7-9.3l.8-1.1c-.4-.6-1.1-.9-1.8-.9-1.1 0-2.1 1-2.1 2.2 0 1 .8 1.9 1.7 2.1.1-.2.2-.4.3-.5l1.1-1.8zm49 37.2c0-1.1-1-2.1-2.1-2.2-1.2-.1-2.2.9-2.3 2.1a2.22 2.22 0 0 0 2.2 2.2c1.2 0 2.2-1 2.2-2.1zm-14.1-2.6c0-1.1-1-2.1-2.1-2.2-1.2 0-2.2 1-2.2 2.1s1 2.1 2.1 2.2 2.2-.9 2.2-2.1zm-27.1-65c1.1 0 2.1-1 2.2-2.1 0-1.1-1-2.2-2.2-2.2-1.1 0-2.2 1.1-2.2 2.2.1 1.1 1.1 2.1 2.2 2.1zm47.5 59.3c-1.2 0-2.1.9-2.1 2.1 0 1.3.9 2.1 2.2 2.1 1.2 0 2-.9 2-2.2 0-1.1-.9-2-2.1-2zm-38-56.1c1.1 0 2.1-1.1 2.1-2.2 0-1.2-1.1-2.2-2.2-2.2s-2.1 1-2.1 2.2 1.1 2.2 2.2 2.2zm42.6 21c.3-.3.4-.8.4-1.2 0-1.1-.9-2.1-2.1-2.2-1.2 0-2.3.9-2.3 2.1v.2c1.5.2 2.8.5 4 1.1zm16.3 19.5a2.22 2.22 0 0 0-2.2 2.2c0 1.1 1 2.1 2.2 2.1s2.1-1 2.2-2.1c0-1.3-1-2.3-2.2-2.2zm-57.3-25a2.22 2.22 0 0 0-2.2 2.2c0 1.1 1 2.1 2.1 2.1s2.2-1.1 2.2-2.2c.1-1-1-2.1-2.1-2.1zm-14.1-7.5c1.1 0 2.2-1 2.2-2.1s-1-2.1-2.1-2.2a2.22 2.22 0 0 0-2.2 2.2c0 1.2.9 2.1 2.1 2.1zm41.7-9.5c1.2 0 2.1-1 2.1-2.1 0-1.2-1-2.1-2.3-2.1-1.2 0-2.1 1-2.1 2.2.1 1 1.1 2 2.3 2zm16.4 68c-1.2 0-2.1.9-2.1 2.1s.9 2.1 2.1 2.1 2.2-.9 2.2-2c-.1-1.3-1-2.2-2.2-2.2zm-18 5.8c0-1.1-1-2.2-2.1-2.2-1.1-.1-2.2 1-2.2 2.2 0 1.1.9 2.1 2.1 2.2 1.1 0 2.1-1 2.2-2.2zM39.9 28.1c0 1.2.9 2.1 2.1 2.1s2.2-1 2.1-2.3c0-1.2-1-2.1-2.2-2.1-1.1.1-2 1.1-2 2.3zm-5.3 48.3c0-1.2-1-2.3-2.2-2.2-1.1 0-2.1 1-2.1 2.2s1 2.2 2.1 2.2c1.3-.1 2.2-1 2.2-2.2zM16.5 64.2c-1.2 0-2.1.9-2.2 2.1 0 1.1.9 2.1 2.1 2.1s2.2-.9 2.2-2c.1-1.2-.8-2.2-2.1-2.2zm23.1 3.5c-1 0-1.8.7-1.8 1.6s.7 1.8 1.7 1.8a1.86 1.86 0 0 0 1.9-1.7c0-.9-.8-1.7-1.8-1.7zm-8.8 1.4c-.1.2-.1.4-.1.6 0 1.3.9 2.2 2.2 2.2 1.1 0 2.1-1 2.1-2.2 0-.5-.2-.9-.4-1.3-.2.1-.5.1-.7.2l-3.1.5zM58.9 75c0-1.2-.9-2.2-2-2.2a2.22 2.22 0 0 0-2.2 2.2c0 1.2 1 2.1 2.1 2.1 1.2 0 2.1-.9 2.1-2.1zM46.5 23.8c1.1 0 2.1-1 2.1-2.2a2.22 2.22 0 0 0-2.2-2.2c-1.2 0-2.1 1-2.1 2.2a2.22 2.22 0 0 0 2.2 2.2zm-12.2.6c0 1.2 1 2.1 2.1 2.1 1.2 0 2.1-.9 2.2-2.1 0-1.2-.9-2.2-2.1-2.2s-2.2 1.1-2.2 2.2zM28 32.6c1.2 0 2.1-.9 2-2.1 0-1.2-.9-2.1-2.1-2.1s-2.1.9-2.1 2.1c0 1.3.9 2.2 2.2 2.1zm70 .7c0-1.2-.9-2.1-2.1-2.1-1.3 0-2.2.9-2.1 2.2 0 1.2.9 2.1 2.1 2.1 1.2-.1 2.1-1 2.1-2.2zM25.8 85.8c.1-1.1-.9-2.3-2-2.4s-2.2.8-2.3 2c-.1 1.1.8 2.3 2 2.4 1.1.1 2.2-.9 2.3-2zm40.2 3c-1.1 0-2.1 1-2.1 2.2s.9 2.1 2.1 2.2c1.2 0 2.1-.9 2.2-2.1 0-1.3-1-2.3-2.2-2.3zM9.2 46.1c0-1.2-1-2.1-2.2-2.1s-2.2 1-2.1 2.1c0 1.2 1 2.2 2.3 2.1 1.1.1 2.1-.9 2-2.1z"/><path d="M37.4 34.4c0 1.2.9 2.1 2.1 2.1s2.1-.9 2.2-2.1c0-1.1-.9-2.1-2.1-2.2-1.2.1-2.2 1-2.2 2.2zm9.9-23.5c1.2 0 2.1-.8 2.1-2.1 0-1.2-.8-2.1-2-2.1s-2.1.8-2.2 2c0 1.3.8 2.2 2.1 2.2zm20.9 22.5c0-1.2-.9-2.2-2.1-2.2-1.1 0-2.1.9-2.2 2.1 0 .5.1 1 .4 1.3 1.3-.3 2.5-.6 3.7-.6.1-.2.2-.4.2-.6zM22.9 69.1c0 1.2 1 2.1 2.2 2.1s2.1-1 2.1-2.1v-.2c-1.3-.2-2.5-.6-3.8-1.1-.3.3-.5.7-.5 1.3zM12 82.5c-1.2 0-2.1.9-2.1 2.1s.9 2.1 2.1 2.1a2.22 2.22 0 0 0 2.2-2.2c0-1.2-.9-2-2.2-2zm76.4-2c-1.2 0-2.1 1-2.1 2.2s.9 2.1 2.1 2.1 2.1-.9 2.1-2.1c.1-1.3-.9-2.2-2.1-2.2zM46.1 29.9c-1.2 0-2.2.9-2.2 2.1s.8 2.2 2 2.2c1.2.1 2.2-.8 2.3-2 0-1.2-.9-2.2-2.1-2.3zM39.4 4.7c1.2.1 2.2-.8 2.2-2 .1-1.2-.8-2.2-2.1-2.3-1.2 0-2.1.9-2.2 2 .1 1.3.9 2.3 2.1 2.3zm13.1 74.6c-1.2-.1-2.2 1-2.2 2.2s.9 2.2 2.1 2.2c1.1 0 2.1-.9 2.1-2.1 0-1.3-.8-2.3-2-2.3zm-28.9-.5c1.2 0 2.1-.9 2.1-2.1s-.9-2.1-2.1-2.1c-1.3 0-2.2.9-2.1 2.2 0 1.2.9 2 2.1 2zm58.8-40c1.2 0 2.1-.9 2.2-2.1 0-1.2-1-2.2-2.2-2.1-1.2 0-2.1 1-2.1 2.2-.1 1.1.9 2 2.1 2zm-23 59.6c-1.2 0-2.1.8-2.1 2 0 1.3.8 2.2 2.1 2.2 1.2 0 2.1-.9 2.1-2.1s-.9-2.1-2.1-2.1zm-6.5-25.2c1.2 0 2.2-1 2.1-2.2 0-1.2-1-2.1-2.1-2.1-1.2 0-2.1 1-2.1 2.1 0 1.2.9 2.1 2.1 2.2zM73.3 9.8c1.2 0 2.1-.9 2.1-2.1s-.9-2.1-2.1-2.1-2.1.9-2.2 2c0 1.2.9 2.2 2.2 2.2zm-14 26.7c1.2 0 2.1-.9 2.1-2.1s-.9-2.1-2.2-2.1c-1.2 0-2.1.9-2.1 2.2.1 1.2 1 2 2.2 2zm31.8 7.7c1.2 0 2.2-.9 2.2-2.2 0-1.1-.9-2-2.1-2.1-1.3 0-2.2.9-2.2 2.1-.1 1.2.9 2.1 2.1 2.2z"/><path d="M36.8 90.3c-1.2 0-2.1 1-2.1 2.1 0 1.2 1 2.1 2.3 2.1 1.2 0 2.1-1 2.1-2.2-.1-1.1-1.2-2-2.3-2zm24.6-21.6c0-1.2-.9-2.1-2.1-2.1s-2.1.9-2.2 2.1c0 1.2.9 2.1 2.1 2.2 1.3-.1 2.3-1 2.2-2.2zM42.1 98.8c-1.3 0-2.2.9-2.2 2.2 0 1.2.9 2.1 2.1 2.1s2.1-.9 2.1-2.1c.1-1.3-.8-2.2-2-2.2zm10.8-68.9c-1.2 0-2.1.8-2.2 2 0 1.3.8 2.2 2.1 2.2 1.2 0 2.1-.9 2.1-2.1.1-1.1-.8-2-2-2.1z"/><path d="M7.9 58.9c-1.2 0-2.1.8-2.2 2 0 1.2.8 2.1 2 2.2 1.3.1 2.2-.8 2.2-2.1 0-1.2-.8-2.1-2-2.1zM42 82.8c1.2 0 2.1-.8 2.1-2.1 0-1.2-.8-2.1-2-2.2-1.3 0-2.2.8-2.2 2.1s.9 2.2 2.1 2.2zm14.8-58.3c1.3 0 2.2-.9 2.2-2.2 0-1.2-.9-2.1-2.1-2.1s-2.1.9-2.1 2.1c-.1 1.3.8 2.2 2 2.2zm30-3.9c1.2 0 2.1-.9 2.1-2.1s-.9-2.2-2.2-2.2c-1.2 0-2.1.9-2.1 2.1.1 1.3 1 2.2 2.2 2.2zM25.7 93.3c-1.3 0-2.1.8-2.1 2s.8 2.2 2 2.2 2.2-.8 2.2-2-.9-2.2-2.1-2.2zM63 18.9c0 1.3.9 2.3 2.1 2.2 1.2 0 2.1-.9 2.1-2.1s-.9-2.1-2.1-2.2c-1.1.1-2 .9-2.1 2.1zM35.8 84.1c0-1.3-.9-2.2-2.2-2.1-1.2 0-2.1.9-2 2.2 0 1.2.9 2.1 2.1 2.1 1.3-.1 2.1-1 2.1-2.2zm15.8 8c-1.3 0-2.2.9-2.1 2.2 0 1.2 1 2 2.2 2s2.1-.9 2-2.1-.9-2.1-2.1-2.1zM3.1 67.7c-1.3 0-2.2.9-2.2 2.1s.9 2.1 2.1 2.1 2.1-.9 2.1-2.1c.1-1.2-.8-2.1-2-2.1zm80.8-8.1c.2-.3.3-.6.5-.9.9-1.8 1.4-3.7 1.6-5.8.1-.7.1-1.4 0-2.1 0-1.3-.2-2.6-.5-3.8 0-.2-.1-.4-.1-.5-.8-2.8-2.5-5.2-4.9-7.3-.9-.8-1.8-1.4-2.8-2-.6-.3-1.2-.7-1.8-.9-1.2-.5-2.4-.9-3.6-1-1.1-.2-2.2-.2-3.4-.1-1.1.1-2.3.3-3.5.6-.1 0-.2 0-.3.1-.1 0-.3.1-.4.1-.5.1-.9.3-1.3.5-.5.2-.9.5-1.4.7a23.48 23.48 0 0 0-2.5 1.9c-.4.3-.7.7-1 1l-3.3 3.6-.7.7c-.5.6-1.1 1.1-1.6 1.7L45.4 54l-2.3 2.4-2.6 2.8-.6.6c-.6.6-1.2 1.1-1.9 1.5l-.6.3c-.3.2-.7.3-1 .5-.2.1-.5.2-.8.2-.9.2-1.8.3-2.7.3h-.7c-.3 0-.7-.1-1-.1h-.1c-.6-.1-1.1-.3-1.7-.5-.1-.1-.3-.1-.4-.2-.5-.2-.9-.4-1.4-.7s-1-.7-1.5-1.1c-.6-.5-1.1-1-1.6-1.6-.2-.2-.3-.5-.5-.7a.76.76 0 0 1-.2-.4l-.9-1.8a9.83 9.83 0 0 1-.5-1.6c-.3-1-.4-1.9-.4-2.8v-.7c0-.3.1-.5.1-.8a8.3 8.3 0 0 1 .6-2.1c.1-.2.1-.4.2-.5.2-.3.3-.7.5-1 .1-.2.2-.4.4-.6.5-.8 1.1-1.4 1.7-2 .3-.2.5-.5.8-.7.7-.6 1.6-1 2.4-1.3.6-.2 1.2-.4 1.8-.5h.2c.5-.1.9-.2 1.4-.2H34c.4 0 .8.1 1.3.2s1 .3 1.4.5l.6.3c.4.2.9.5 1.3.9.4.3.7.6 1 .9.5.4.9.9 1.3 1.3l.2.2 1.7 1.8c.2.2.3.4.5.6.6-.7 1.3-1.3 1.9-1.9.6-.7 1.3-1.3 1.9-2l-1.3-1.4c-.3-.3-.5-.6-.8-.8-1.2-1.3-2.5-2.5-3.9-3.5-.4-.3-.8-.5-1.2-.7-.1-.1-.3-.1-.4-.2-3.2-1.6-6.5-1.9-9.9-1.2-.1 0-.2 0-.3.1-.5.1-1 .2-1.5.4l-1.6.6c-.9.4-1.7.8-2.5 1.3-1.4.9-2.6 2-3.7 3.3-.3.3-.5.7-.8 1-.4.5-.7 1.1-1 1.7-.1.2-.2.3-.3.5-1.2 2.4-1.8 5.1-1.6 7.9 0 .7.1 1.3.2 2v.2c.1.6.2 1.2.4 1.7 0 .1 0 .2.1.3 1.1 3.7 3.2 6.7 6.4 8.8.6.4 1.2.7 1.8 1 .2.1.5.2.7.3l.6.3c1.2.5 2.4.9 3.6 1.1 1.1.2 2.2.3 3.4.2.9-.1 1.9-.2 2.8-.4.2-.1.5-.1.7-.2.4-.1.8-.3 1.2-.4l.6-.3c2.2-1 4.1-2.6 5.7-4.3.7-.8 1.5-1.6 2.2-2.3.5-.5.9-1 1.4-1.5.7-.8 1.5-1.6 2.2-2.4 1.1-1.1 2.1-2.3 3.2-3.4.7-.8 1.4-1.5 2.2-2.3.3-.3.6-.7 1-1 .4-.4.7-.8 1.1-1.1.2-.3.5-.5.7-.8l3.7-3.9.3-.3c.5-.5 1-.9 1.6-1.3.3-.2.6-.4.8-.5s.5-.2.7-.4c.4-.2.8-.3 1.2-.4.6-.2 1.2-.2 1.8-.3h.9c.5 0 1.1.1 1.6.2.3 0 .6.1.9.2.5.1 1 .3 1.5.5h.1c1 .4 1.9 1 2.8 1.7.3.2.5.4.7.7l.7.7c.3.4.6.8.9 1.3l.3.6c.3.5.5 1 .7 1.6.4 1.3.6 2.6.6 4v.4c0 .6-.1 1.1-.3 1.7-.1.5-.3 1-.5 1.5s-.5 1-.8 1.5c-.8 1.3-1.8 2.4-3 3.2-.3.2-.6.4-1 .6-.5.3-1.1.6-1.7.8-.5.2-1 .3-1.5.4-.1 0-.2 0-.3.1-.6.1-1.2.2-1.8.2h-.3c-.5 0-1.1 0-1.6-.1-.2 0-.5-.1-.7-.1-.6-.2-1.3-.4-1.9-.7-.2-.1-.5-.3-.7-.4-.3-.2-.5-.4-.8-.6-.9-.8-1.8-1.7-2.7-2.6l-.4-.4c-.5-.5-1-1.1-1.5-1.7-.4.4-.7.8-1.1 1.1-.3.3-.6.6-.9 1L55 60.1c.2.2.4.5.7.7 1.1 1.1 2.2 2.3 3.3 3.3.4.4.8.7 1.1 1l.9.6c.5.4 1.1.7 1.6 1 .7.4 1.4.7 2.2.9 2.1.7 4.3.8 6.7.5.3 0 .6-.1 1-.2l1.2-.3a16.55 16.55 0 0 0 8.4-5.5l1-1.3c.4-.5.6-.8.8-1.2z"/></svg>