<?xml version="1.0" encoding="utf-8"?>
<!-- Generator: Adobe Illustrator 19.0.0, SVG Export Plug-In . SVG Version: 6.00 Build 0)  -->
<svg version="1.1" id="Layer_1" xmlns="http://www.w3.org/2000/svg" xmlns:xlink="http://www.w3.org/1999/xlink" x="0px" y="0px"
	 viewBox="0 0 98.9 103" style="enable-background:new 0 0 98.9 103;" xml:space="preserve">
<style type="text/css">
	.st0{fill:#404041;}
</style>
<g id="XMLID_5127_">
	<path id="XMLID_5101_" class="st0" d="M57.8,4.1c1-0.4,1.5-1.6,1.1-2.6c-0.3-0.6-0.9-1-1.3-1.5c-0.5,0-0.9,0-1.4,0
		c-0.2,0.2-0.5,0.4-0.7,0.6c-0.8,0.8-1,1.9-0.4,2.8C55.7,4.2,56.8,4.5,57.8,4.1z"/>
	<path id="XMLID_5100_" class="st0" d="M89.6,71c0-1.1-1.1-2.1-2.2-2.1c-1.1,0-2.2,1.1-2.2,2.2c0,1.1,1.1,2.1,2.2,2.1
		C88.6,73.2,89.6,72.2,89.6,71z"/>
	<path id="XMLID_5099_" class="st0" d="M48.4,27c0,1.2,1,2.2,2.2,2.2c1.2,0,2.1-1,2.1-2.3c0-1.1-1.1-2.1-2.2-2.1
		C49.3,24.8,48.4,25.8,48.4,27z"/>
	<path id="XMLID_5098_" class="st0" d="M13.5,72.6c-1.1,0-2.1,1-2.1,2.2c0,1.2,1.1,2.2,2.2,2.2c1.1,0,2.1-1,2.1-2.2
		C15.7,73.5,14.7,72.5,13.5,72.6z"/>
	<path id="XMLID_5097_" class="st0" d="M78.8,70.5c-1.1,0-2.1,0.9-2.2,2.1c-0.1,1.1,0.9,2.2,2.1,2.3c1.1,0,2.1-0.9,2.2-2.1
		C80.9,71.6,79.9,70.5,78.8,70.5z"/>
	<path id="XMLID_5096_" class="st0" d="M9.3,32.1c0,1.1,1.1,2.1,2.2,2.1c1.1,0,2.1-1,2.1-2.1c0-1.2-1-2.2-2.2-2.2
		C10.3,29.8,9.2,30.9,9.3,32.1z"/>
	<path id="XMLID_5095_" class="st0" d="M64.4,73.2c1.2,0,2.2-1,2.1-2.2c0-1.1-1-2.1-2.1-2.1c-1.1,0-2.2,1.1-2.2,2.2
		C62.3,72.2,63.3,73.2,64.4,73.2z"/>
	<path id="XMLID_5094_" class="st0" d="M75.5,92c-1.2,0-2.2,1-2.2,2.2c0,1.1,1.1,2.1,2.2,2.1c1.2,0,2.2-1,2.1-2.2
		C77.6,92.9,76.6,92,75.5,92z"/>
	<path id="XMLID_5093_" class="st0" d="M85.4,30.5c1.1-0.1,2.1-1.1,2.1-2.2c0-1.1-1.1-2.1-2.2-2.1c-1.2,0-2.2,1.1-2.2,2.2
		C83.2,29.6,84.2,30.6,85.4,30.5z"/>
	<path id="XMLID_5092_" class="st0" d="M96.9,65.3c-1.1-0.1-2.2,0.8-2.3,2c-0.1,1.2,0.8,2.3,2,2.3c1.2,0.1,2.2-0.8,2.3-1.9
		C99,66.4,98.1,65.4,96.9,65.3z"/>
	<path id="XMLID_5091_" class="st0" d="M46,73.2c1.1,0,2.2-1,2.1-2.1c0-1.2-0.9-2.1-2.1-2.2c-1.2,0-2.2,0.9-2.2,2.2
		C43.9,72.2,44.8,73.1,46,73.2z"/>
	<path id="XMLID_5090_" class="st0" d="M10.4,22.6c1.1,0,2.1-1,2.1-2.2c0-1.2-0.9-2.1-2.1-2.2c-1.2,0-2.1,0.9-2.2,2.1
		C8.3,21.5,9.2,22.6,10.4,22.6z"/>
	<path id="XMLID_5074_" class="st0" d="M69.8,79.3c-1.1,0-2.1,1-2.2,2.1c0,1.2,1,2.3,2.2,2.2c1.1,0,2.1-1,2.1-2.2
		C71.8,80.2,70.9,79.3,69.8,79.3z"/>
	<path id="XMLID_5072_" class="st0" d="M37.9,74.3c0,1.1,1,2.1,2.1,2.1c1.1,0,2.2-1.1,2.2-2.2c0-1.1-1-2.1-2.2-2.1
		C38.8,72.1,37.9,73.1,37.9,74.3z"/>
	<path id="XMLID_5069_" class="st0" d="M45.8,85.3c-1.2,0-2.2,1-2.1,2.3c0,1.2,1,2.1,2.2,2.1c1.1,0,2.1-1,2.1-2.2
		C47.9,86.3,46.9,85.3,45.8,85.3z"/>
	<path id="XMLID_5068_" class="st0" d="M53.1,17.8c1.2,0,2.1-0.9,2.1-2.1c0-1.2-0.9-2.2-2.1-2.2c-1.1,0-2,1-2.1,2.1
		C50.9,16.7,51.9,17.8,53.1,17.8z"/>
	<path id="XMLID_5067_" class="st0" d="M38.4,16.5c0,1.1,1,2.2,2.2,2.2c1.1,0,2.1-1,2.1-2.1c0-1.2-0.9-2.2-2.1-2.2
		C39.5,14.3,38.5,15.3,38.4,16.5z"/>
	<path id="XMLID_5065_" class="st0" d="M73.1,17.6c0.1,1.1,1.1,2.1,2.2,2.1c1.2,0,2.1-1.1,2.1-2.3c-0.1-1.1-1.1-2.1-2.2-2.1
		C74.1,15.3,73,16.4,73.1,17.6z"/>
	<path id="XMLID_5063_" class="st0" d="M29.2,23.8c1.2,0,2.2-1,2.1-2.2c0-1.1-1.1-2.1-2.2-2.1c-1.1,0-2.1,1-2.1,2.1
		C27,22.8,28,23.8,29.2,23.8z"/>
	<path id="XMLID_5062_" class="st0" d="M75.4,24.2c-1.2,0-2.1,0.8-2.2,2c0,1.2,0.8,2.2,2,2.2c1.3,0.1,2.2-0.8,2.2-2.1
		C77.5,25.2,76.6,24.3,75.4,24.2z"/>
	<path id="XMLID_5061_" class="st0" d="M58.7,31c1.2,0.1,2.2-0.9,2.3-2.1c0-1.2-0.9-2.2-2.1-2.2c-1.1,0-2.1,1-2.1,2.1
		C56.7,29.9,57.6,30.9,58.7,31z"/>
	<path id="XMLID_5060_" class="st0" d="M20.3,32.6c1.1-0.1,2.1-1.1,2.1-2.2c0-1.1-1.1-2.1-2.2-2.1c-1.1,0-2.2,1.1-2.2,2.2
		C18,31.6,19.1,32.6,20.3,32.6z"/>
	<path id="XMLID_5059_" class="st0" d="M64.2,26.7c0,1.2,0.9,2.2,2.2,2.2c1.2,0,2.2-1.1,2.2-2.2c0-1.1-1.1-2.1-2.2-2.1
		C65.2,24.5,64.3,25.5,64.2,26.7z"/>
	<path id="XMLID_5058_" class="st0" d="M4.3,35.6c0-1.2-1.1-2.1-2.3-2.1c-1.2,0-2.1,1-2.1,2.2c0,1.2,1.1,2.2,2.3,2.1
		C3.4,37.8,4.4,36.7,4.3,35.6z"/>
	<path id="XMLID_5057_" class="st0" d="M86.3,61.3c0-1-0.8-1.9-1.7-2.1c-0.2,0.3-0.3,0.6-0.5,0.9c-0.2,0.4-0.4,0.7-0.7,1.1
		c-0.3,0.5-0.7,0.9-1,1.4c0.4,0.6,1.1,1,1.8,0.9C85.3,63.5,86.4,62.4,86.3,61.3z"/>
	<path id="XMLID_5055_" class="st0" d="M86.3,50.8c0.7-0.3,1.2-1.1,1.2-1.9c0-1.1-0.7-2-1.8-2.2c0,0,0,0,0,0
		C86.1,48.1,86.3,49.4,86.3,50.8z"/>
	<path id="XMLID_5053_" class="st0" d="M15.6,41.5c0.3-0.4,0.5-0.7,0.8-1.1c-0.4-0.6-1.1-0.9-1.8-0.9c-1.1,0-2.1,1-2.1,2.2
		c0,1,0.8,1.9,1.7,2.1c0.1-0.2,0.2-0.4,0.3-0.5C14.9,42.6,15.2,42.1,15.6,41.5z"/>
	<path id="XMLID_5052_" class="st0" d="M64.6,78.7c0-1.1-1-2.1-2.1-2.2c-1.2-0.1-2.2,0.9-2.3,2.1c0,1.2,1,2.2,2.2,2.2
		C63.6,80.8,64.6,79.8,64.6,78.7z"/>
	<path id="XMLID_5051_" class="st0" d="M50.5,76.1c0-1.1-1-2.1-2.1-2.2c-1.2,0-2.2,1-2.2,2.1c0,1.1,1,2.1,2.1,2.2
		C49.4,78.3,50.5,77.3,50.5,76.1z"/>
	<path id="XMLID_5050_" class="st0" d="M23.4,11.1c1.1,0,2.1-1,2.2-2.1c0-1.1-1-2.2-2.2-2.2c-1.1,0-2.2,1.1-2.2,2.2
		C21.3,10.1,22.3,11.1,23.4,11.1z"/>
	<path id="XMLID_5049_" class="st0" d="M70.9,70.4c-1.2,0-2.1,0.9-2.1,2.1c0,1.3,0.9,2.1,2.2,2.1c1.2,0,2-0.9,2-2.2
		C73,71.3,72.1,70.4,70.9,70.4z"/>
	<path id="XMLID_5046_" class="st0" d="M32.9,14.3c1.1,0,2.1-1.1,2.1-2.2c0-1.2-1.1-2.2-2.2-2.2c-1.1,0-2.1,1-2.1,2.2
		C30.7,13.3,31.8,14.3,32.9,14.3z"/>
	<path id="XMLID_5045_" class="st0" d="M75.5,35.3c0.3-0.3,0.4-0.8,0.4-1.2c0-1.1-0.9-2.1-2.1-2.2c-1.2,0-2.3,0.9-2.3,2.1
		c0,0.1,0,0.1,0,0.2C73,34.4,74.3,34.7,75.5,35.3C75.5,35.3,75.5,35.3,75.5,35.3z"/>
	<path id="XMLID_5043_" class="st0" d="M91.8,54.8c-1.2,0-2.2,1-2.2,2.2c0,1.1,1,2.1,2.2,2.1c1.2,0,2.1-1,2.2-2.1
		C94,55.7,93,54.7,91.8,54.8z"/>
	<path id="XMLID_5042_" class="st0" d="M34.5,29.8c-1.2,0-2.2,1-2.2,2.2c0,1.1,1,2.1,2.1,2.1c1.1,0,2.2-1.1,2.2-2.2
		C36.7,30.9,35.6,29.8,34.5,29.8z"/>
	<path id="XMLID_5040_" class="st0" d="M20.4,22.3c1.1,0,2.2-1,2.2-2.1c0-1.1-1-2.1-2.1-2.2c-1.2,0-2.2,1-2.2,2.2
		C18.3,21.4,19.2,22.3,20.4,22.3z"/>
	<path id="XMLID_5038_" class="st0" d="M62.1,12.8c1.2,0,2.1-1,2.1-2.1c0-1.2-1-2.1-2.3-2.1c-1.2,0-2.1,1-2.1,2.2
		C59.9,11.8,60.9,12.8,62.1,12.8z"/>
	<path id="XMLID_5037_" class="st0" d="M78.5,80.8c-1.2,0-2.1,0.9-2.1,2.1c0,1.2,0.9,2.1,2.1,2.1c1.2,0,2.2-0.9,2.2-2
		C80.6,81.8,79.7,80.8,78.5,80.8z"/>
	<path id="XMLID_5036_" class="st0" d="M60.5,86.6c0-1.1-1-2.2-2.1-2.2c-1.1-0.1-2.2,1-2.2,2.2c0,1.1,0.9,2.1,2.1,2.2
		C59.4,88.8,60.4,87.8,60.5,86.6z"/>
	<path id="XMLID_5035_" class="st0" d="M39.9,28.1c0,1.2,0.9,2.1,2.1,2.1c1.2,0,2.2-1,2.1-2.3c0-1.2-1-2.1-2.2-2.1
		C40.8,25.9,39.9,26.9,39.9,28.1z"/>
	<path id="XMLID_5034_" class="st0" d="M34.6,76.4c0-1.2-1-2.3-2.2-2.2c-1.1,0-2.1,1-2.1,2.2c0,1.2,1,2.2,2.1,2.2
		C33.7,78.5,34.6,77.6,34.6,76.4z"/>
	<path id="XMLID_5033_" class="st0" d="M16.5,64.2c-1.2,0-2.1,0.9-2.2,2.1c0,1.1,0.9,2.1,2.1,2.1c1.2,0,2.2-0.9,2.2-2
		C18.7,65.2,17.8,64.2,16.5,64.2z"/>
	<path id="XMLID_5030_" class="st0" d="M39.6,67.7c-1,0-1.8,0.7-1.8,1.6c0,0.9,0.7,1.8,1.7,1.8c1,0,1.8-0.7,1.9-1.7
		C41.4,68.5,40.6,67.7,39.6,67.7z"/>
	<path id="XMLID_5029_" class="st0" d="M30.8,69.1c-0.1,0.2-0.1,0.4-0.1,0.6c0,1.3,0.9,2.2,2.2,2.2c1.1,0,2.1-1,2.1-2.2
		c0-0.5-0.2-0.9-0.4-1.3c-0.2,0.1-0.5,0.1-0.7,0.2C32.8,68.8,31.8,69,30.8,69.1z"/>
	<path id="XMLID_5027_" class="st0" d="M58.9,75c0-1.2-0.9-2.2-2-2.2c-1.2,0-2.2,1-2.2,2.2c0,1.2,1,2.1,2.1,2.1
		C58,77.1,58.9,76.2,58.9,75z"/>
	<path id="XMLID_5012_" class="st0" d="M46.5,23.8c1.1,0,2.1-1,2.1-2.2c0-1.2-1-2.2-2.2-2.2c-1.2,0-2.1,1-2.1,2.2
		C44.3,22.8,45.3,23.8,46.5,23.8z"/>
	<path id="XMLID_5009_" class="st0" d="M34.3,24.4c0,1.2,1,2.1,2.1,2.1c1.2,0,2.1-0.9,2.2-2.1c0-1.2-0.9-2.2-2.1-2.2
		C35.3,22.2,34.3,23.3,34.3,24.4z"/>
	<path id="XMLID_4995_" class="st0" d="M28,32.6c1.2,0,2.1-0.9,2-2.1c0-1.2-0.9-2.1-2.1-2.1c-1.2,0-2.1,0.9-2.1,2.1
		C25.8,31.8,26.7,32.7,28,32.6z"/>
	<path id="XMLID_4994_" class="st0" d="M98,33.3c0-1.2-0.9-2.1-2.1-2.1c-1.3,0-2.2,0.9-2.1,2.2c0,1.2,0.9,2.1,2.1,2.1
		C97.1,35.4,98,34.5,98,33.3z"/>
	<path id="XMLID_4934_" class="st0" d="M25.8,85.8c0.1-1.1-0.9-2.3-2-2.4c-1.1-0.1-2.2,0.8-2.3,2c-0.1,1.1,0.8,2.3,2,2.4
		C24.6,87.9,25.7,86.9,25.8,85.8z"/>
	<path id="XMLID_4915_" class="st0" d="M66,88.8c-1.1,0-2.1,1-2.1,2.2c0,1.2,0.9,2.1,2.1,2.2c1.2,0,2.1-0.9,2.2-2.1
		C68.2,89.8,67.2,88.8,66,88.8z"/>
	<path id="XMLID_4905_" class="st0" d="M9.2,46.1c0-1.2-1-2.1-2.2-2.1c-1.2,0-2.2,1-2.1,2.1c0,1.2,1,2.2,2.3,2.1
		C8.3,48.3,9.3,47.3,9.2,46.1z"/>
	<path id="XMLID_4899_" class="st0" d="M37.4,34.4c0,1.2,0.9,2.1,2.1,2.1c1.2,0,2.1-0.9,2.2-2.1c0-1.1-0.9-2.1-2.1-2.2
		C38.4,32.3,37.4,33.2,37.4,34.4z"/>
	<path id="XMLID_4897_" class="st0" d="M47.3,10.9c1.2,0,2.1-0.8,2.1-2.1c0-1.2-0.8-2.1-2-2.1c-1.2,0-2.1,0.8-2.2,2
		C45.2,10,46,10.9,47.3,10.9z"/>
	<path id="XMLID_4896_" class="st0" d="M68.2,33.4c0-1.2-0.9-2.2-2.1-2.2c-1.1,0-2.1,0.9-2.2,2.1c0,0.5,0.1,1,0.4,1.3
		c1.3-0.3,2.5-0.6,3.7-0.6C68.1,33.8,68.2,33.6,68.2,33.4z"/>
	<path id="XMLID_4895_" class="st0" d="M22.9,69.1c0,1.2,1,2.1,2.2,2.1c1.2,0,2.1-1,2.1-2.1c0-0.1,0-0.1,0-0.2
		c-1.3-0.2-2.5-0.6-3.8-1.1C23.1,68.1,22.9,68.5,22.9,69.1z"/>
	<path id="XMLID_4891_" class="st0" d="M12,82.5c-1.2,0-2.1,0.9-2.1,2.1c0,1.2,0.9,2.1,2.1,2.1c1.2,0,2.2-1,2.2-2.2
		C14.2,83.3,13.3,82.5,12,82.5z"/>
	<path id="XMLID_4854_" class="st0" d="M88.4,80.5c-1.2,0-2.1,1-2.1,2.2c0,1.2,0.9,2.1,2.1,2.1c1.2,0,2.1-0.9,2.1-2.1
		C90.6,81.4,89.6,80.5,88.4,80.5z"/>
	<path id="XMLID_4853_" class="st0" d="M46.1,29.9c-1.2,0-2.2,0.9-2.2,2.1c0,1.2,0.8,2.2,2,2.2c1.2,0.1,2.2-0.8,2.3-2
		C48.2,31,47.3,30,46.1,29.9z"/>
	<path id="XMLID_4847_" class="st0" d="M39.4,4.7c1.2,0.1,2.2-0.8,2.2-2c0.1-1.2-0.8-2.2-2.1-2.3c-1.2,0-2.1,0.9-2.2,2
		C37.4,3.7,38.2,4.7,39.4,4.7z"/>
	<path id="XMLID_4781_" class="st0" d="M52.5,79.3c-1.2-0.1-2.2,1-2.2,2.2c0,1.2,0.9,2.2,2.1,2.2c1.1,0,2.1-0.9,2.1-2.1
		C54.5,80.3,53.7,79.3,52.5,79.3z"/>
	<path id="XMLID_4776_" class="st0" d="M23.6,78.8c1.2,0,2.1-0.9,2.1-2.1c0-1.2-0.9-2.1-2.1-2.1c-1.3,0-2.2,0.9-2.1,2.2
		C21.5,78,22.4,78.8,23.6,78.8z"/>
	<path id="XMLID_4775_" class="st0" d="M82.4,38.8c1.2,0,2.1-0.9,2.2-2.1c0-1.2-1-2.2-2.2-2.1c-1.2,0-2.1,1-2.1,2.2
		C80.2,37.9,81.2,38.8,82.4,38.8z"/>
	<path id="XMLID_4772_" class="st0" d="M59.4,98.4c-1.2,0-2.1,0.8-2.1,2c0,1.3,0.8,2.2,2.1,2.2c1.2,0,2.1-0.9,2.1-2.1
		C61.5,99.3,60.6,98.4,59.4,98.4z"/>
	<path id="XMLID_3962_" class="st0" d="M52.9,73.2c1.2,0,2.2-1,2.1-2.2c0-1.2-1-2.1-2.1-2.1c-1.2,0-2.1,1-2.1,2.1
		C50.8,72.2,51.7,73.1,52.9,73.2z"/>
	<path id="XMLID_3955_" class="st0" d="M73.3,9.8c1.2,0,2.1-0.9,2.1-2.1c0-1.2-0.9-2.1-2.1-2.1c-1.2,0-2.1,0.9-2.2,2
		C71.1,8.8,72,9.8,73.3,9.8z"/>
	<path id="XMLID_3953_" class="st0" d="M59.3,36.5c1.2,0,2.1-0.9,2.1-2.1c0-1.2-0.9-2.1-2.2-2.1c-1.2,0-2.1,0.9-2.1,2.2
		C57.2,35.7,58.1,36.5,59.3,36.5z"/>
	<path id="XMLID_3950_" class="st0" d="M91.1,44.2c1.2,0,2.2-0.9,2.2-2.2c0-1.1-0.9-2-2.1-2.1c-1.3,0-2.2,0.9-2.2,2.1
		C88.9,43.2,89.9,44.1,91.1,44.2z"/>
	<path id="XMLID_3545_" class="st0" d="M36.8,90.3c-1.2,0-2.1,1-2.1,2.1c0,1.2,1,2.1,2.3,2.1c1.2,0,2.1-1,2.1-2.2
		C39,91.2,37.9,90.3,36.8,90.3z"/>
	<path id="XMLID_3481_" class="st0" d="M61.4,68.7c0-1.2-0.9-2.1-2.1-2.1c-1.2,0-2.1,0.9-2.2,2.1c0,1.2,0.9,2.1,2.1,2.2
		C60.5,70.8,61.5,69.9,61.4,68.7z"/>
	<path id="XMLID_3480_" class="st0" d="M42.1,98.8c-1.3,0-2.2,0.9-2.2,2.2c0,1.2,0.9,2.1,2.1,2.1c1.2,0,2.1-0.9,2.1-2.1
		C44.2,99.7,43.3,98.8,42.1,98.8z"/>
	<path id="XMLID_3478_" class="st0" d="M52.9,29.9c-1.2,0-2.1,0.8-2.2,2c0,1.3,0.8,2.2,2.1,2.2c1.2,0,2.1-0.9,2.1-2.1
		C55,30.9,54.1,30,52.9,29.9z"/>
	<path id="XMLID_3470_" class="st0" d="M7.9,58.9c-1.2,0-2.1,0.8-2.2,2c0,1.2,0.8,2.1,2,2.2C9,63.2,9.9,62.3,9.9,61
		C9.9,59.8,9.1,58.9,7.9,58.9z"/>
	<path id="XMLID_3408_" class="st0" d="M42,82.8c1.2,0,2.1-0.8,2.1-2.1c0-1.2-0.8-2.1-2-2.2c-1.3,0-2.2,0.8-2.2,2.1
		C39.9,81.9,40.8,82.8,42,82.8z"/>
	<path id="XMLID_3039_" class="st0" d="M56.8,24.5c1.3,0,2.2-0.9,2.2-2.2c0-1.2-0.9-2.1-2.1-2.1c-1.2,0-2.1,0.9-2.1,2.1
		C54.7,23.6,55.6,24.5,56.8,24.5z"/>
	<path id="XMLID_70_" class="st0" d="M86.8,20.6c1.2,0,2.1-0.9,2.1-2.1c0-1.2-0.9-2.2-2.2-2.2c-1.2,0-2.1,0.9-2.1,2.1
		C84.7,19.7,85.6,20.6,86.8,20.6z"/>
	<path id="XMLID_68_" class="st0" d="M25.7,93.3c-1.3,0-2.1,0.8-2.1,2c0,1.2,0.8,2.2,2,2.2c1.2,0,2.2-0.8,2.2-2
		C27.8,94.3,26.9,93.3,25.7,93.3z"/>
	<path id="XMLID_66_" class="st0" d="M63,18.9c0,1.3,0.9,2.3,2.1,2.2c1.2,0,2.1-0.9,2.1-2.1c0-1.2-0.9-2.1-2.1-2.2
		C64,16.9,63.1,17.7,63,18.9z"/>
	<path id="XMLID_64_" class="st0" d="M35.8,84.1c0-1.3-0.9-2.2-2.2-2.1c-1.2,0-2.1,0.9-2,2.2c0,1.2,0.9,2.1,2.1,2.1
		C35,86.2,35.8,85.3,35.8,84.1z"/>
	<path id="XMLID_62_" class="st0" d="M51.6,92.1c-1.3,0-2.2,0.9-2.1,2.2c0,1.2,1,2,2.2,2c1.2,0,2.1-0.9,2-2.1
		C53.6,93,52.8,92.1,51.6,92.1z"/>
	<path id="XMLID_59_" class="st0" d="M3.1,67.7c-1.3,0-2.2,0.9-2.2,2.1c0,1.2,0.9,2.1,2.1,2.1c1.2,0,2.1-0.9,2.1-2.1
		C5.2,68.6,4.3,67.7,3.1,67.7z"/>
	<path id="XMLID_97_" class="st0" d="M83.9,59.6c0.2-0.3,0.3-0.6,0.5-0.9c0.9-1.8,1.4-3.7,1.6-5.8c0.1-0.7,0.1-1.4,0-2.1
		c0-1.3-0.2-2.6-0.5-3.8c0,0,0,0,0,0c0-0.2-0.1-0.4-0.1-0.5c-0.8-2.8-2.5-5.2-4.9-7.3c-0.9-0.8-1.8-1.4-2.8-2
		c-0.6-0.3-1.2-0.7-1.8-0.9c0,0,0,0,0,0c-1.2-0.5-2.4-0.9-3.6-1c-1.1-0.2-2.2-0.2-3.4-0.1c-1.1,0.1-2.3,0.3-3.5,0.6
		c-0.1,0-0.2,0-0.3,0.1c-0.1,0-0.3,0.1-0.4,0.1c-0.5,0.1-0.9,0.3-1.3,0.5c-0.5,0.2-0.9,0.5-1.4,0.7c-0.9,0.6-1.7,1.2-2.5,1.9
		c-0.4,0.3-0.7,0.7-1,1c-1.1,1.2-2.2,2.4-3.3,3.6c-0.2,0.2-0.5,0.5-0.7,0.7c-0.5,0.6-1.1,1.1-1.6,1.7c-2.5,2.6-5,5.3-7.5,7.9
		c-0.8,0.8-1.5,1.6-2.3,2.4c-0.9,0.9-1.7,1.9-2.6,2.8c-0.1,0.1-0.3,0.3-0.4,0.4c-0.1,0.1-0.1,0.1-0.2,0.2c-0.6,0.6-1.2,1.1-1.9,1.5
		c-0.2,0.1-0.4,0.2-0.6,0.3c-0.3,0.2-0.7,0.3-1,0.5c-0.2,0.1-0.5,0.2-0.8,0.2c-0.9,0.2-1.8,0.3-2.7,0.3c-0.2,0-0.5,0-0.7,0
		c-0.3,0-0.7-0.1-1-0.1c0,0-0.1,0-0.1,0c-0.6-0.1-1.1-0.3-1.7-0.5c-0.1-0.1-0.3-0.1-0.4-0.2c-0.5-0.2-0.9-0.4-1.4-0.7
		c-0.5-0.3-1-0.7-1.5-1.1c-0.6-0.5-1.1-1-1.6-1.6c-0.2-0.2-0.3-0.5-0.5-0.7c-0.1-0.1-0.2-0.3-0.2-0.4c-0.3-0.6-0.6-1.2-0.9-1.8
		c-0.2-0.5-0.4-1.1-0.5-1.6C22.1,52.9,22,52,22,51.1c0-0.2,0-0.5,0-0.7c0-0.3,0.1-0.5,0.1-0.8c0.1-0.7,0.3-1.4,0.6-2.1
		c0.1-0.2,0.1-0.4,0.2-0.5c0.2-0.3,0.3-0.7,0.5-1c0.1-0.2,0.2-0.4,0.4-0.6c0.5-0.8,1.1-1.4,1.7-2c0.3-0.2,0.5-0.5,0.8-0.7
		c0.7-0.6,1.6-1,2.4-1.3c0.6-0.2,1.2-0.4,1.8-0.5c0.1,0,0.1,0,0.2,0c0.5-0.1,0.9-0.2,1.4-0.2c0.2,0,0.4,0,0.6,0c0.1,0,0.2,0,0.4,0
		c0.3,0,0.6,0,0.9,0c0.4,0,0.8,0.1,1.3,0.2c0.5,0.1,1,0.3,1.4,0.5c0.2,0.1,0.4,0.2,0.6,0.3c0.4,0.2,0.9,0.5,1.3,0.9c0,0,0,0,0,0
		c0.4,0.3,0.7,0.6,1,0.9c0.5,0.4,0.9,0.9,1.3,1.3c0.1,0.1,0.1,0.1,0.2,0.2c0.6,0.6,1.1,1.2,1.7,1.8c0.2,0.2,0.3,0.4,0.5,0.6
		c0.6-0.7,1.3-1.3,1.9-1.9c0.6-0.7,1.3-1.3,1.9-2c-0.5-0.5-0.9-1-1.3-1.4c-0.3-0.3-0.5-0.6-0.8-0.8c-1.2-1.3-2.5-2.5-3.9-3.5
		c-0.4-0.3-0.8-0.5-1.2-0.7c-0.1-0.1-0.3-0.1-0.4-0.2c-3.2-1.6-6.5-1.9-9.9-1.2c-0.1,0-0.2,0-0.3,0.1c-0.5,0.1-1,0.2-1.5,0.4
		c-0.5,0.2-1.1,0.4-1.6,0.6c-0.9,0.4-1.7,0.8-2.5,1.3c-1.4,0.9-2.6,2-3.7,3.3c-0.3,0.3-0.5,0.7-0.8,1c-0.4,0.5-0.7,1.1-1,1.7
		c-0.1,0.2-0.2,0.3-0.3,0.5c-1.2,2.4-1.8,5.1-1.6,7.9c0,0.7,0.1,1.3,0.2,2c0,0.1,0,0.1,0,0.2c0.1,0.6,0.2,1.2,0.4,1.7
		c0,0.1,0,0.2,0.1,0.3c1.1,3.7,3.2,6.7,6.4,8.8c0.6,0.4,1.2,0.7,1.8,1c0.2,0.1,0.5,0.2,0.7,0.3c0.2,0.1,0.4,0.2,0.6,0.3
		c1.2,0.5,2.4,0.9,3.6,1.1c1.1,0.2,2.2,0.3,3.4,0.2c0.9-0.1,1.9-0.2,2.8-0.4c0.2-0.1,0.5-0.1,0.7-0.2c0.4-0.1,0.8-0.3,1.2-0.4
		c0.2-0.1,0.4-0.2,0.6-0.3c2.2-1,4.1-2.6,5.7-4.3c0.7-0.8,1.5-1.6,2.2-2.3c0.5-0.5,0.9-1,1.4-1.5c0.7-0.8,1.5-1.6,2.2-2.4
		c1.1-1.1,2.1-2.3,3.2-3.4c0.7-0.8,1.4-1.5,2.2-2.3c0.3-0.3,0.6-0.7,1-1c0.4-0.4,0.7-0.8,1.1-1.1c0.2-0.3,0.5-0.5,0.7-0.8
		c1.2-1.3,2.4-2.6,3.7-3.9c0.1-0.1,0.2-0.2,0.3-0.3c0.5-0.5,1-0.9,1.6-1.3c0.3-0.2,0.6-0.4,0.8-0.5c0.2-0.1,0.5-0.2,0.7-0.4
		c0.4-0.2,0.8-0.3,1.2-0.4c0.6-0.2,1.2-0.2,1.8-0.3c0.3,0,0.6,0,0.9,0h0c0.5,0,1.1,0.1,1.6,0.2c0.3,0,0.6,0.1,0.9,0.2
		c0.5,0.1,1,0.3,1.5,0.5c0,0,0.1,0,0.1,0c1,0.4,1.9,1,2.8,1.7c0.3,0.2,0.5,0.4,0.7,0.7c0.2,0.2,0.5,0.5,0.7,0.7
		c0.3,0.4,0.6,0.8,0.9,1.3c0.1,0.2,0.2,0.4,0.3,0.6c0.3,0.5,0.5,1,0.7,1.6c0.4,1.3,0.6,2.6,0.6,4c0,0.1,0,0.3,0,0.4
		c0,0.6-0.1,1.1-0.3,1.7c-0.1,0.5-0.3,1-0.5,1.5c-0.2,0.5-0.5,1-0.8,1.5c-0.8,1.3-1.8,2.4-3,3.2c-0.3,0.2-0.6,0.4-1,0.6
		c-0.5,0.3-1.1,0.6-1.7,0.8c-0.5,0.2-1,0.3-1.5,0.4c-0.1,0-0.2,0-0.3,0.1c-0.6,0.1-1.2,0.2-1.8,0.2c-0.1,0-0.2,0-0.3,0
		c-0.5,0-1.1,0-1.6-0.1c-0.2,0-0.5-0.1-0.7-0.1c0,0,0,0,0,0c-0.6-0.2-1.3-0.4-1.9-0.7c-0.2-0.1-0.5-0.3-0.7-0.4
		c-0.3-0.2-0.5-0.4-0.8-0.6c-0.9-0.8-1.8-1.7-2.7-2.6c-0.1-0.1-0.2-0.2-0.4-0.4c-0.5-0.5-1-1.1-1.5-1.7c-0.4,0.4-0.7,0.8-1.1,1.1
		c-0.3,0.3-0.6,0.6-0.9,1c-0.6,0.6-1.2,1.2-1.8,1.8c0.2,0.2,0.4,0.5,0.7,0.7c1.1,1.1,2.2,2.3,3.3,3.3c0.4,0.4,0.8,0.7,1.1,1
		c0.3,0.2,0.6,0.4,0.9,0.6c0.5,0.4,1.1,0.7,1.6,1c0.7,0.4,1.4,0.7,2.2,0.9c2.1,0.7,4.3,0.8,6.7,0.5c0.3,0,0.6-0.1,1-0.2
		c0.4-0.1,0.8-0.2,1.2-0.3c3.3-0.9,6.3-2.9,8.4-5.5c0.3-0.4,0.7-0.9,1-1.3C83.5,60.3,83.7,60,83.9,59.6z"/>
</g>
</svg>
