<?xml version="1.0" encoding="utf-8"?>
<!-- Generator: Adobe Illustrator 19.0.0, SVG Export Plug-In . SVG Version: 6.00 Build 0)  -->
<svg version="1.1" id="Layer_1" xmlns="http://www.w3.org/2000/svg" xmlns:xlink="http://www.w3.org/1999/xlink" x="0px" y="0px"
	 viewBox="0 0 969.9 1010.8" style="enable-background:new 0 0 969.9 1010.8;" xml:space="preserve">
<style type="text/css">
	.st0{opacity:0.5;}
	.st1{fill:#F7F8F8;}
</style>
<g id="XMLID_2141_" class="st0">
	<path id="XMLID_2285_" class="st1" d="M566.5,40.2c9.4-4.3,15.1-15.8,10.7-25.5c-2.5-5.7-8.6-9.8-13-14.6c-4.5,0-9.1,0-13.6,0
		c-2.3,1.8-4.7,3.6-6.8,5.6c-8,7.5-9.4,19.1-3.5,27.6C546,41.3,557.4,44.3,566.5,40.2z"/>
	<path id="XMLID_2284_" class="st1" d="M879.1,696.8c-0.2-10.8-10.4-20.8-21.1-21c-11.1-0.2-21.8,10.6-21.6,21.8
		c0.2,10.8,10.4,20.8,21.2,20.8C869.1,718.4,879.3,708.1,879.1,696.8z"/>
	<path id="XMLID_2283_" class="st1" d="M474.5,264.4c-0.1,11.5,10,21.3,21.6,21.1c11.7-0.2,20.9-10.3,20.4-22.2
		c-0.5-11-10.7-20.6-21.4-20.2C484,243.5,474.6,253.2,474.5,264.4z"/>
	<path id="XMLID_2282_" class="st1" d="M132.3,711.8c-11,0.3-20.6,10.2-20.5,21.2c0.1,11.4,10.6,21.7,21.8,21.3
		c11.1-0.4,20.3-10.2,20.3-21.4C153.9,721,144,711.4,132.3,711.8z"/>
	<path id="XMLID_2281_" class="st1" d="M772.7,691.5c-10.8-0.3-20.9,9.1-21.7,20.3c-0.8,11,9.3,22,20.7,22.4
		c11,0.4,20.9-9,21.5-20.2C793.7,702.1,784.2,691.8,772.7,691.5z"/>
	<path id="XMLID_2280_" class="st1" d="M91.1,314.6c0.3,10.8,10.8,20.9,21.4,20.7c10.9-0.2,20.8-10.1,21-21
		c0.2-11.5-10-21.8-21.3-21.7C100.7,292.7,90.7,303.2,91.1,314.6z"/>
	<path id="XMLID_2279_" class="st1" d="M631.6,718.2c11.8,0.1,21.2-9.6,21-21.6c-0.1-11.2-9.6-20.8-20.7-21
		c-11.2-0.2-21.7,10.6-21.3,21.8C611,708.5,620.7,718.2,631.6,718.2z"/>
	<path id="XMLID_2278_" class="st1" d="M740.4,902.2c-11.5-0.1-21.6,10.3-21.2,21.7c0.4,10.9,10.5,20.9,21.1,20.9
		c11.5,0,21.3-10.2,21.1-21.9C761.1,911.5,751.7,902.3,740.4,902.2z"/>
	<path id="XMLID_2277_" class="st1" d="M838.2,299.1c11.1-0.6,20.6-10.7,20.2-21.6c-0.4-10.9-10.8-21-21.4-20.8
		c-11.6,0.3-21.5,10.5-21.2,21.9C816.3,290.5,826.4,299.8,838.2,299.1z"/>
	<path id="XMLID_2276_" class="st1" d="M950.2,640.3c-11-0.9-21.2,7.8-22.5,19.2c-1.3,11.3,8.1,22.1,19.8,22.8
		c11.5,0.7,21.3-7.7,22.3-19C970.9,651.6,962,641.2,950.2,640.3z"/>
	<path id="XMLID_2275_" class="st1" d="M451.3,717.7c11.2,0.1,21.1-9.8,21.1-20.9c-0.1-11.8-8.9-21-20.4-21.3
		c-12-0.4-21.5,9-21.4,21.2C430.6,708.3,439.8,717.6,451.3,717.7z"/>
	<path id="XMLID_2274_" class="st1" d="M102.3,221.7c10.8,0.1,20.8-10,21-21.1c0.1-11.6-8.9-21.1-20.4-21.4
		c-11.4-0.3-21,8.8-21.4,20.2C81.1,211.4,90.6,221.5,102.3,221.7z"/>
	<path id="XMLID_2273_" class="st1" d="M684.3,777.5c-11.1-0.2-20.9,9.3-21.2,20.6c-0.3,11.7,9.8,22.1,21.2,22
		c11.2-0.1,20.5-9.8,20.4-21.4C704.7,787.1,695.7,777.7,684.3,777.5z"/>
	<path id="XMLID_2272_" class="st1" d="M371.6,729c0.3,11,10.2,20.9,21,20.9c11.2,0,21.6-10.7,21.2-22
		c-0.4-11.2-10.1-20.7-21.1-20.7C381,707.3,371.3,717.3,371.6,729z"/>
	<path id="XMLID_2271_" class="st1" d="M449.2,836.9c-11.7,0-21.3,10.2-21,22.1c0.4,11.5,9.9,20.5,21.3,20.4
		c11.1-0.2,20.6-10,20.5-21.3C470.1,846.6,460.4,836.9,449.2,836.9z"/>
	<path id="XMLID_2270_" class="st1" d="M520.6,174.2c11.4,0,20.8-9.3,21-20.8c0.3-12.2-9.1-21.8-21-21.8c-10.5,0-20,9.4-20.4,20.1
		C499.7,163.6,509.3,174.2,520.6,174.2z"/>
	<path id="XMLID_2269_" class="st1" d="M377,161.4c-0.3,11.2,10.3,22,21.3,21.9c11.2-0.1,20.6-9.6,20.8-21
		c0.2-11.9-9.2-21.7-21-21.7C387.2,140.6,377.3,150.3,377,161.4z"/>
	<path id="XMLID_2268_" class="st1" d="M717.2,172.3c0.6,11.1,10.7,20.6,21.6,20.2c11.7-0.4,20.9-10.6,20.3-22.4
		c-0.6-11.1-10.6-20.7-21.4-20.3C726.5,150.2,716.6,161,717.2,172.3z"/>
	<path id="XMLID_2267_" class="st1" d="M286.3,233.4c11.7-0.1,21.4-10.2,20.9-21.9c-0.4-10.9-10.7-20.7-21.5-20.6
		c-10.9,0.1-20.5,10-20.6,21C265,224,274.4,233.5,286.3,233.4z"/>
	<path id="XMLID_2266_" class="st1" d="M739.4,237.7c-12.2-0.3-20.9,7.8-21.3,19.7c-0.3,12.1,7.9,21.2,19.5,21.7
		c12.6,0.5,21.7-8,21.9-20.4C759.8,246.9,751.2,238,739.4,237.7z"/>
	<path id="XMLID_2265_" class="st1" d="M576.1,303.6c11.9,0.6,21.8-8.6,22.1-20.4c0.3-12-8.9-21.9-20.7-21.9
		c-11-0.1-20.7,9.4-21.1,20.7C556.1,293.2,565,303.1,576.1,303.6z"/>
	<path id="XMLID_2264_" class="st1" d="M198.9,319.4c10.8-0.5,20.6-10.9,20.4-21.7c-0.2-10.8-10.5-20.9-21.2-21
		c-11.2-0.1-21.5,10.5-21.3,21.8C177,310.2,187.4,320,198.9,319.4z"/>
	<path id="XMLID_2263_" class="st1" d="M630,261.5c-0.3,11.9,9.3,21.7,21.1,21.7c11.3,0,21.6-10.6,21.2-21.9
		c-0.3-10.6-11-20.9-21.5-20.8C639.9,240.6,630.3,250.3,630,261.5z"/>
	<path id="XMLID_2262_" class="st1" d="M42.6,349.3c-0.3-11.5-10.7-21.1-22.4-20.6C8.9,329.2-0.2,338.9,0,350.1
		c0.3,11.3,11.1,21.6,22.2,21C32.9,370.5,42.9,359.8,42.6,349.3z"/>
	<path id="XMLID_2261_" class="st1" d="M846.9,601.7c-0.2-9.5-8-18.4-17.1-20.6c-1.5,3-3.1,6-4.7,8.9c-2,3.6-4.2,7.1-6.5,10.5
		c-3.2,4.7-6.6,9.3-10.2,13.6c4,5.7,10.7,9.4,18,9C837.2,622.7,847.1,612.3,846.9,601.7z"/>
	<path id="XMLID_2260_" class="st1" d="M847.1,498.7c6.8-3.4,11.7-10.4,11.8-18.6c0.2-11-7.3-20-17.6-21.7c0,0.1,0.1,0.2,0.1,0.3
		C844.8,471.5,846.6,484.8,847.1,498.7z"/>
	<path id="XMLID_2258_" class="st1" d="M153.2,407.1c2.5-3.6,5.2-7.2,8.1-10.6c-4-5.5-10.4-9-17.5-8.8
		c-10.9,0.4-20.3,10.2-20.4,21.5c-0.1,9.3,7.5,18.2,16.5,20.6c0.9-1.8,1.8-3.6,2.7-5.4C145.8,418.4,149.4,412.6,153.2,407.1z"/>
	<path id="XMLID_2256_" class="st1" d="M634,771.8c0.3-10.8-9.3-21-20.2-21.5c-11.9-0.5-21.9,8.7-22.2,20.5
		c-0.3,11.4,9.9,21.9,21.2,21.9C623.4,792.6,633.7,782.6,634,771.8z"/>
	<path id="XMLID_2253_" class="st1" d="M495.8,746.8c0.2-10.7-9.6-21-20.6-21.4c-11.5-0.5-21.9,9.4-22,21c-0.1,11,9.4,21,20.4,21.6
		C484.7,768.5,495.6,758.1,495.8,746.8z"/>
	<path id="XMLID_2252_" class="st1" d="M229.7,108.7c11.1,0,21-9.5,21.3-20.5c0.4-11.2-9.8-21.7-21.4-21.9
		c-11-0.2-21.5,10.6-21.2,21.9C208.9,99.5,218.4,108.7,229.7,108.7z"/>
	<path id="XMLID_2251_" class="st1" d="M695.4,690.9c-11.9,0.1-20.4,8.8-20.3,20.7c0.1,12.5,9,20.9,21.6,20.7
		c11.7-0.3,20-9.2,19.7-21.3C716.1,699,707.5,690.7,695.4,690.9z"/>
	<path id="XMLID_2250_" class="st1" d="M323.1,140.2c10.5-0.2,20.9-11,20.7-21.3c-0.2-11.6-10.4-21.6-21.8-21.3
		c-11.3,0.3-20.6,9.9-20.6,21.2C301.4,130.3,311.7,140.5,323.1,140.2z"/>
	<path id="XMLID_2249_" class="st1" d="M741.1,346c2.6-3.3,4.2-7.5,4.3-12c0.3-11.3-8.9-20.9-20.4-21.2
		c-12.2-0.4-22.2,8.9-22.2,20.7c0,0.5,0,1.1,0.1,1.6c13,2,25.6,5.6,37.9,10.9C741,345.9,741,345.9,741.1,346z"/>
	<path id="XMLID_2248_" class="st1" d="M900.6,537.1c-11.9,0.1-21.6,9.9-21.2,21.4c0.4,11.1,10.1,20.2,21.4,20.1
		c11.3-0.1,21-9.4,21.2-20.4C922.3,546.7,912.5,537,900.6,537.1z"/>
	<path id="XMLID_2247_" class="st1" d="M338.7,292.7c-11.3-0.1-21.5,10.2-21.4,21.6c0.1,11.1,9.8,20.9,20.8,21
		c11.2,0.1,21.7-10.3,21.6-21.6C359.6,303,349.4,292.8,338.7,292.7z"/>
	<path id="XMLID_2246_" class="st1" d="M200.3,218.6c11.2,0.1,21.2-9.7,21.2-20.6c0.1-11.2-9.4-20.8-20.8-21.1
		c-12-0.3-21.9,9.5-21.6,21.2C179.4,209.5,188.7,218.5,200.3,218.6z"/>
	<path id="XMLID_2245_" class="st1" d="M609.1,125.3c11.6-0.2,20.9-9.4,20.8-20.8c-0.1-11.8-10-21.1-22.1-20.7
		c-11.3,0.4-20.6,10.1-20.4,21.4C587.6,116.2,597.7,125.5,609.1,125.3z"/>
	<path id="XMLID_2244_" class="st1" d="M769.7,792.4c-11.4-0.1-20.9,9.3-21,20.7c0,11.5,9,20.7,20.6,20.9c11.6,0.2,21.3-8.8,21.5-20
		C791,802,781.9,792.6,769.7,792.4z"/>
	<path id="XMLID_2243_" class="st1" d="M593.1,849.5c0.2-10.6-9.8-21.2-20.4-21.7c-11.1-0.6-21.6,9.6-21.9,21.2
		c-0.3,11.2,8.8,20.8,20.3,21.4C582.5,870.8,592.9,861,593.1,849.5z"/>
	<path id="XMLID_2242_" class="st1" d="M391.9,275.6c0.1,11.6,9.2,20.9,20.6,21.1c11.5,0.2,21.1-10.1,20.8-22.1
		c-0.3-11.3-10.2-20.9-21.2-20.5C400.7,254.4,391.8,263.9,391.9,275.6z"/>
	<path id="XMLID_2240_" class="st1" d="M339.8,749.5c0.2-12.1-9.5-22.1-21.2-21.8c-11.1,0.3-20.6,10.3-20.5,21.5
		c0.1,11.3,9.7,21.1,20.8,21.2C330.3,770.5,339.6,761.1,339.8,749.5z"/>
	<path id="XMLID_2239_" class="st1" d="M162.2,630c-11.6,0-20.9,8.9-21.3,20.5c-0.4,11,9.3,20.8,20.7,21
		c11.4,0.2,21.4-8.9,21.8-19.9C183.8,639.7,174.2,630,162.2,630z"/>
	<path id="XMLID_2238_" class="st1" d="M388.7,664.3c-9.6-0.2-17.2,6.8-17.6,16.2c-0.4,9.1,7.2,17.3,16.3,17.7
		c9.6,0.4,18.1-7.3,18.2-16.8C405.7,672,398.3,664.4,388.7,664.3z"/>
	<path id="XMLID_2237_" class="st1" d="M302.2,677.4c-0.5,1.8-0.8,3.6-0.8,5.5c-0.1,12.3,9.2,22,21.1,21.8c11-0.1,20.4-10,20.5-21.4
		c0-4.6-1.6-8.9-4.2-12.4c-2.4,0.7-4.8,1.4-7.2,2C321.7,675.4,311.9,676.8,302.2,677.4z"/>
	<path id="XMLID_2236_" class="st1" d="M578.1,735.9c0.1-11.7-9-21.4-20.1-21.6c-11.7-0.2-21.3,9.5-21.2,21.7
		c0.1,11.5,9.5,21,20.7,20.9C568.8,756.8,578,747.5,578.1,735.9z"/>
	<path id="XMLID_2234_" class="st1" d="M456.3,233.3c11.1-0.3,20.3-9.9,20.3-21.2c0-11.8-9.9-21.7-21.3-21.4
		C444,191,435.1,200.4,435,212C435,223.9,444.7,233.6,456.3,233.3z"/>
	<path id="XMLID_2233_" class="st1" d="M336.2,239.8c0,11.4,9.4,20.8,20.9,20.8c11.5,0.1,21-9,21.3-20.4
		c0.2-11.5-8.8-21.2-20.1-21.7C346.6,218.2,336.2,228.2,336.2,239.8z"/>
	<path id="XMLID_2232_" class="st1" d="M274.8,320.2c12.1-0.3,20.1-8.7,20.1-21c0-11.9-8.6-20.5-20.5-20.6
		c-11.7,0-20.6,8.7-20.7,20.4C253.5,311.6,262.4,320.5,274.8,320.2z"/>
	<path id="XMLID_2231_" class="st1" d="M961,326.3c0-12-8.4-20.5-20.4-20.6c-12.7-0.1-21.1,8.4-20.9,21.2c0.2,12,8.8,20.3,20.9,20.1
		C952.6,346.9,961,338.3,961,326.3z"/>
	<path id="XMLID_2230_" class="st1" d="M252.9,841.8c1.2-11-8.4-22.4-19.7-23.3c-10.7-0.9-21.3,8.3-22.5,19.3
		c-1.2,11.2,8.2,22.3,19.6,23.2C241,862,251.7,852.8,252.9,841.8z"/>
	<path id="XMLID_2228_" class="st1" d="M647.6,870.9c-11.1,0-21,10-21,21.1c-0.1,11.4,9.3,21,20.6,21.3c11.3,0.3,21-8.9,21.3-20.3
		C668.8,881.1,659.2,870.8,647.6,870.9z"/>
	<path id="XMLID_2227_" class="st1" d="M90.5,452.6c-0.3-11.4-9.8-20.4-21.4-20.3c-11.4,0.1-21.1,9.7-21.1,20.8
		c0.1,12,9.9,21.1,22.1,20.7C81.6,473.5,90.8,463.9,90.5,452.6z"/>
	<path id="XMLID_2226_" class="st1" d="M367.1,337.7c0,11.4,9.2,20.6,20.9,20.6c11.7,0.1,21.1-8.6,21.5-20.2
		c0.4-11.2-9-21-20.4-21.3C376.9,316.6,367.1,325.8,367.1,337.7z"/>
	<path id="XMLID_2225_" class="st1" d="M464.3,107.2c12.2,0,20.6-8.3,20.8-20.4c0.2-12-8.3-20.8-20.1-21.1
		c-12.2-0.3-20.9,7.9-21.3,19.8C443.4,98.4,451.7,107.2,464.3,107.2z"/>
	<path id="XMLID_2224_" class="st1" d="M668.6,327.9c0.1-11.7-8.8-21.3-20.1-21.6c-11.1-0.4-21,9.1-21.3,20.5
		c-0.1,5,1.3,9.5,3.8,13.1c12.5-3.4,24.7-5.5,36.7-6.3C668.3,331.8,668.6,329.8,668.6,327.9z"/>
	<path id="XMLID_2223_" class="st1" d="M224.4,677.4c-0.1,11.5,10,21,22,20.8c11.4-0.2,20.9-9.9,20.7-21c0-0.7-0.1-1.3-0.1-2
		c-12.5-2.2-24.9-5.9-37.3-11.1C226.5,667.8,224.5,672.4,224.4,677.4z"/>
	<path id="XMLID_2222_" class="st1" d="M118.1,809.1c-11.6,0.1-20.8,9.3-20.8,20.6c0.1,11.6,9.1,20.7,20.7,20.8
		c12.2,0.1,21.9-9.6,21.4-21.3C139,817.3,130.1,809,118.1,809.1z"/>
	<path id="XMLID_2221_" class="st1" d="M867.3,789.6c-11.6,0.2-20.4,9.4-20.4,21.3c0,11.7,8.9,20.8,20.6,20.9
		c11.5,0.1,20.8-9,20.9-20.5C888.6,798.9,879.3,789.4,867.3,789.6z"/>
	<path id="XMLID_2220_" class="st1" d="M452,293.4c-11.5-0.4-21.1,8.6-21.5,20.2c-0.4,11.7,8.2,21.2,19.6,21.9
		c11.8,0.6,21.4-7.7,22.2-19.3C473.2,304.2,463.9,293.8,452,293.4z"/>
	<path id="XMLID_2219_" class="st1" d="M386.7,46.4c11.5,0.6,21.2-8,21.9-19.6c0.7-12.2-8.2-22.1-20.2-22.2
		c-11.7-0.2-20.9,8.5-21.3,20C366.6,36.2,375.2,45.8,386.7,46.4z"/>
	<path id="XMLID_2218_" class="st1" d="M515.1,777.7c-11.4-0.6-21.5,9.4-21.5,21.3c0,11.5,9.2,21.1,20.3,21.3
		c11.3,0.2,20.8-9.2,21-20.7C535.1,787.9,526.3,778.2,515.1,777.7z"/>
	<path id="XMLID_2217_" class="st1" d="M231.6,773.3c12.2-0.2,20.3-8.6,20.3-20.8c-0.1-12.1-8.5-20.5-20.5-20.6
		c-12.4,0-21.1,8.9-20.8,21.3C210.8,765.1,219.6,773.5,231.6,773.3z"/>
	<path id="XMLID_2216_" class="st1" d="M807.9,381c11.6,0,21-9.1,21.3-20.5c0.2-11.4-10-21.3-21.9-21.1c-11.3,0.2-21,10.1-20.7,21.1
		C787,371.9,796.5,381,807.9,381z"/>
	<path id="XMLID_2215_" class="st1" d="M582.6,965c-12.2-0.2-20.8,7.9-21,20c-0.2,12.7,8.3,21.5,20.8,21.5
		c11.8,0,20.4-8.7,20.5-20.6C602.9,973.8,594.5,965.1,582.6,965z"/>
	<path id="XMLID_2214_" class="st1" d="M518.5,717.7c12,0.2,21.2-9.4,20.9-21.8c-0.2-11.5-9.6-20.6-21.1-20.4
		c-11.6,0.2-20.5,9.4-20.4,21.1C498,708.2,507,717.5,518.5,717.7z"/>
	<path id="XMLID_2213_" class="st1" d="M718.9,95.9c11.7-0.1,20.9-9.1,21-20.6c0.1-11.3-9.2-20.8-20.7-21
		c-11.8-0.2-21,8.5-21.3,20.1C697.5,86.7,706.6,96,718.9,95.9z"/>
	<path id="XMLID_2207_" class="st1" d="M581.9,358.3c11.7,0,20.8-9,20.9-20.6c0.1-12-9.3-21.1-21.7-20.8
		c-11.8,0.2-20.4,9.2-20.2,21.1C561,349.8,569.9,358.4,581.9,358.3z"/>
	<path id="XMLID_2206_" class="st1" d="M893.3,433.1c12.2,0.2,21.5-9,21.4-21.3c-0.1-10.9-9.1-19.8-20.2-20.1
		c-12.3-0.3-21.9,8.7-21.9,20.6C872.5,423.8,881.6,432.9,893.3,433.1z"/>
	<path id="XMLID_2205_" class="st1" d="M360.9,885.7c-11.5,0.2-21.1,9.8-21,20.8c0.1,11.7,10.2,21,22.3,20.6
		c11.4-0.4,20.8-10.2,20.4-21.3C382.2,894.6,372.3,885.5,360.9,885.7z"/>
	<path id="XMLID_2190_" class="st1" d="M602.8,673.5c0-11.5-9.1-20.7-20.6-20.8c-11.8-0.1-21,8.5-21.4,20.1
		c-0.4,11.6,8.5,21,20.1,21.4C593.2,694.5,602.8,685.4,602.8,673.5z"/>
	<path id="XMLID_2188_" class="st1" d="M413,969c-12.3-0.5-21.3,8.5-21.3,21.1c0,11.9,8.7,20.7,20.5,20.7
		c11.8,0.1,20.5-8.5,20.8-20.4C433.2,978.3,424.9,969.4,413,969z"/>
	<path id="XMLID_2177_" class="st1" d="M519.3,293.6c-12-0.3-20.9,8.2-21.3,20.1c-0.4,12.6,8.3,21.7,20.6,21.8
		c11.6,0.1,20.6-8.9,20.8-20.6C539.6,302.8,531.1,293.9,519.3,293.6z"/>
	<path id="XMLID_2173_" class="st1" d="M77,577.9c-11.9-0.2-20.9,8.2-21.3,20c-0.4,11.9,8,21.1,19.8,21.6
		c12.4,0.5,21.8-8.3,21.9-20.6C97.4,587,88.8,578.1,77,577.9z"/>
	<path id="XMLID_2169_" class="st1" d="M411.8,812.1c12,0.2,20.8-8.3,21-20.1c0.2-12-8.1-21-19.8-21.4c-12.6-0.4-21.6,8.2-21.5,20.7
		C391.6,803.4,399.8,811.9,411.8,812.1z"/>
	<path id="XMLID_2168_" class="st1" d="M557.5,240.4c12.6,0.2,21.4-8.6,21.3-21.1c-0.2-11.8-9-20.4-21-20.3
		c-11.9,0.1-20.7,8.8-20.7,20.5C537,231.4,545.7,240.3,557.5,240.4z"/>
	<path id="XMLID_2167_" class="st1" d="M851.5,201.9c11.9,0,20.8-8.6,21-20.3c0.2-12.2-8.9-21.2-21.3-21.1
		c-11.9,0.1-20.3,8.8-20.2,20.9C831.1,193.6,839.4,201.8,851.5,201.9z"/>
	<path id="XMLID_2166_" class="st1" d="M251.7,915.2c-12.3-0.2-20.7,7.8-21.1,19.9c-0.4,12,7.9,21.1,19.7,21.5
		c11.8,0.4,21.2-8,21.7-19.5C272.5,924.6,263.9,915.3,251.7,915.2z"/>
	<path id="XMLID_2161_" class="st1" d="M618.5,185.7c-0.3,12.6,8.7,22.1,20.7,21.8c11.9-0.3,20.4-9,20.5-20.9
		c0.1-11.8-8.6-20.9-20.2-21.1C627.8,165.3,618.7,173.9,618.5,185.7z"/>
	<path id="XMLID_2159_" class="st1" d="M351.6,824.8c0-12.7-8.7-21.3-21.3-21c-11.8,0.2-20.3,9.2-20.1,21.2
		c0.2,11.8,9,20.5,20.8,20.5C343,845.4,351.6,836.8,351.6,824.8z"/>
	<path id="XMLID_2158_" class="st1" d="M505.7,904c-12.3,0-21.2,9.2-20.8,21.5c0.4,11.7,9.4,20,21.3,19.8c12.1-0.2,20.1-8.6,20-20.9
		C526.2,912.1,518,904,505.7,904z"/>
	<path id="XMLID_2153_" class="st1" d="M30.4,664c-12.3-0.3-21.5,8.6-21.4,20.9c0,11.9,8.7,20.4,20.7,20.5
		c12.1,0.1,20.8-8.4,20.8-20.3C50.5,673,42.2,664.3,30.4,664z"/>
	<path id="XMLID_2150_" class="st1" d="M822.8,585c1.6-2.8,3.1-5.6,4.5-8.4c8.7-17.5,14.2-36.7,15.7-56.8c0.5-7,0.7-13.9,0.5-20.7
		c-0.4-13-2.1-25.6-5.3-37.6c0-0.1-0.1-0.2-0.1-0.3c-0.5-1.7-0.9-3.4-1.5-5.1c-8.3-27.2-24.2-51.3-47.9-71.9
		c-8.8-7.6-17.9-14.2-27.2-19.7c-5.8-3.4-11.7-6.4-17.6-9c-0.1,0-0.1-0.1-0.2-0.1c-11.5-5-23.4-8.3-35.6-10.2
		c-10.8-1.7-21.9-2.1-33.1-1.3c-11.3,0.8-22.8,2.7-34.5,5.9c-0.9,0.2-1.7,0.4-2.6,0.7c-1.4,0.4-2.8,0.8-4.2,1.2
		c-4.5,1.4-8.8,3-12.9,4.9c-4.6,2.1-9.1,4.5-13.4,7.1c-8.9,5.4-17.1,11.8-24.8,18.9c-3.5,3.2-6.9,6.5-10.3,10
		c-11.1,11.4-21.9,23.1-32.7,34.8c-2.2,2.4-4.5,4.9-6.8,7.3c-5.2,5.6-10.3,11.2-15.6,16.7c-24.4,25.9-49,51.5-73.4,77.4
		c-7.4,7.9-14.8,15.8-22.1,23.7c-8.5,9.2-17,18.3-25.8,27.3c-1.4,1.4-2.7,2.8-4.1,4.2c-0.6,0.6-1.2,1.3-1.9,1.9
		c-5.8,5.6-11.9,10.4-18.2,14.2c-1.9,1.1-3.8,2.2-5.7,3.2c-3.3,1.7-6.7,3.2-10.1,4.4c-2.4,0.9-4.9,1.6-7.4,2.3
		c-8.5,2.3-17.4,3.3-26.7,3c-2.3-0.1-4.5-0.2-6.8-0.4c-3.3-0.3-6.5-0.7-9.9-1.3c-0.4-0.1-0.9-0.2-1.3-0.2
		c-5.7-1.1-11.3-2.6-16.5-4.4c-1.4-0.5-2.8-1.1-4.2-1.6c-4.7-1.9-9.2-4.2-13.5-6.7c-5.2-3.1-10.1-6.6-14.7-10.4
		c-5.7-4.8-10.8-10.1-15.3-15.9c-1.7-2.2-3.4-4.5-4.9-6.9c-0.8-1.3-1.6-2.6-2.4-3.9c-3.3-5.5-6.2-11.3-8.5-17.3
		c-2-5.2-3.6-10.6-4.9-16c-2-8.9-2.8-18-2.5-27.2c0.1-2.4,0.2-4.7,0.5-7.1c0.3-2.6,0.6-5.3,1.1-7.9c1.3-7,3.3-13.9,6-20.6
		c0.7-1.8,1.4-3.5,2.3-5.2c1.5-3.2,3.2-6.4,5.1-9.6c1.2-2,2.4-3.9,3.7-5.8c5-7.4,10.6-13.9,16.7-19.6c2.6-2.4,5.2-4.6,8-6.7
		c7.3-5.5,15.2-9.9,23.8-13.2c5.6-2.2,11.5-3.9,17.6-5.2c0.5-0.1,1-0.2,1.5-0.3c4.6-0.9,9.3-1.6,14.1-2c2.1-0.2,4.1-0.3,6.1-0.3
		c1.2,0,2.4,0,3.6,0c2.9,0,5.8,0.1,8.6,0.4c4.2,0.4,8.3,1.1,12.3,2c4.8,1.1,9.4,2.7,13.9,4.7c2.1,1,4.2,2,6.3,3.2
		c4.3,2.4,8.5,5.2,12.5,8.6c0,0,0.1,0.1,0.1,0.1c3.4,2.9,6.8,5.9,10.1,8.9c4.4,4.1,8.8,8.4,13,12.6c0.5,0.5,1,1.1,1.5,1.6
		c5.7,5.8,11.2,11.9,16.9,18.1c1.7,1.8,3.3,3.6,5,5.4c6.2-6.4,12.3-12.7,18.5-19.1c6.2-6.4,12.5-12.9,18.8-19.4
		c-4.4-4.8-8.7-9.4-12.9-14c-2.6-2.8-5.2-5.6-7.8-8.3c-11.8-12.4-24.1-24.3-38.2-34c-3.8-2.6-7.7-5.1-11.8-7.3
		c-1.2-0.7-2.5-1.3-3.7-2c-31-15.9-63.8-18.3-97.4-11.7c-1,0.2-1.9,0.4-2.9,0.6c-4.9,1.1-9.8,2.3-14.5,3.8
		c-5.3,1.7-10.5,3.6-15.5,5.8c-8.5,3.7-16.6,8.1-24.3,13.1c-13.8,9-26,20.1-36.3,32.7c-2.6,3.2-5.2,6.5-7.6,9.9
		c-3.6,5.2-6.9,10.6-9.9,16.3c-0.9,1.7-1.7,3.4-2.6,5.1c-11.4,23.4-17.3,49.9-15.9,77.6c0.3,6.5,1,13,2.1,19.5
		c0.1,0.5,0.2,1,0.3,1.6c1,5.7,2.3,11.3,3.8,16.7c0.2,0.9,0.4,1.7,0.7,2.6c10.6,36.4,31.8,65.3,63,86c5.5,3.6,11.3,7,17.4,10.2
		c2.2,1.2,4.5,2.3,6.9,3.3c2.1,1,4.2,1.9,6.2,2.8c11.6,4.9,23.3,8.4,35,10.4c11,1.9,22,2.6,33.1,2c9.2-0.5,18.4-1.9,27.6-4.2
		c2.3-0.6,4.5-1.2,6.8-1.9c3.9-1.2,7.8-2.5,11.7-4c2.1-0.8,4.1-1.7,6.2-2.6c22-9.6,39.9-25,56.2-42.3c7.2-7.6,14.3-15.3,21.3-23
		c4.5-4.9,9-9.8,13.5-14.7c7.2-7.9,14.5-15.8,21.8-23.6c10.4-11.1,20.9-22.1,31.4-33.1c7.1-7.4,14.1-14.8,21.2-22.2
		c3.1-3.3,6.3-6.6,9.4-9.9c3.5-3.7,7-7.4,10.5-11.1c2.4-2.5,4.7-5,7.1-7.5c12-12.8,23.8-25.7,36.1-38.1c1.1-1.1,2.2-2.2,3.3-3.3
		c5-5,10.2-9.3,15.7-13c2.7-1.8,5.4-3.5,8.2-4.9c2.4-1.3,4.8-2.4,7.2-3.5c3.8-1.6,7.8-2.9,11.8-4c5.7-1.5,11.7-2.4,17.8-2.8
		c2.8-0.2,5.6-0.2,8.5-0.1h0c5.2,0.2,10.5,0.7,16,1.6c2.8,0.5,5.6,1.1,8.4,1.8c5.1,1.3,9.9,2.9,14.7,4.9c0.3,0.1,0.7,0.3,1,0.4
		c10,4.3,19.1,9.9,27.1,16.7c2.5,2.1,5,4.4,7.3,6.7c2.3,2.3,4.5,4.8,6.6,7.3c3.3,4,6.3,8.3,9,12.8c1.1,1.8,2.2,3.7,3.2,5.6
		c2.6,4.9,4.8,10.1,6.7,15.4c4.3,12.5,6.3,26,5.7,39.7c-0.1,1.4-0.1,2.8-0.3,4.3c-0.5,5.5-1.4,11.1-2.8,16.7
		c-1.3,5-2.9,9.9-4.8,14.5c-2.1,5.2-4.6,10.3-7.5,15c-7.5,12.6-17.5,23.4-29.1,31.8c-3.1,2.2-6.3,4.3-9.7,6.2
		c-5.3,3-10.9,5.6-16.7,7.8c-4.7,1.7-9.6,3.1-14.7,4.2c-1.1,0.2-2.2,0.5-3.3,0.7c-5.9,1.1-11.9,1.6-18,1.7c-0.8,0-1.7,0-2.5,0
		c-5.2,0-10.4-0.4-15.3-1.2c-2.4-0.4-4.8-0.9-7.2-1.4c-0.1,0-0.2,0-0.3-0.1c-6.3-1.6-12.4-3.9-18.2-7c-2.3-1.2-4.6-2.6-6.9-4.1
		c-2.7-1.8-5.4-3.9-7.9-6.1c-9.3-8.2-18.1-17-26.9-25.7c-1.2-1.2-2.4-2.4-3.6-3.7c-5-5.3-9.8-10.7-14.9-16.3
		c-3.7,3.8-7.3,7.5-10.9,11.3c-3.1,3.1-6.1,6.3-9.2,9.4c-5.8,6-11.7,12-17.6,18.1c2.2,2.2,4.3,4.4,6.5,6.7
		c10.8,11.2,21.3,22.2,32.4,32.8c3.7,3.5,7.4,6.8,11.2,9.8c2.8,2.2,5.6,4.3,8.5,6.3c5.3,3.7,10.6,6.9,16.2,9.8
		c7,3.6,14.2,6.6,21.6,8.9c20.6,6.5,42.6,7.9,65.8,4.7c3.1-0.4,6.2-0.9,9.4-1.5c3.9-0.7,7.7-1.6,11.4-2.6
		c32.8-8.8,61.5-28,82.5-53.5c3.4-4.1,6.6-8.4,9.6-12.8C818.8,591.6,820.9,588.3,822.8,585z"/>
</g>
</svg>
